<svg xmlns="http://www.w3.org/2000/svg" viewBox="0 0 160.18 160.09"><defs><style>.cls-1{fill:#129e83;}.cls-2{fill:#f7f9f9;}.cls-3{fill:#fcfcfc;}</style></defs><g id="Capa_2" data-name="Capa 2"><g id="Capa_1-2" data-name="Capa 1"><rect class="cls-1" x="0.05" width="160.09" height="160.09" rx="26.81"/><path class="cls-2" d="M31.38,93.7c.6,0,.8.5,1,.8A64.88,64.88,0,0,0,49.28,108a51.71,51.71,0,0,0,39.1,4.2,50.67,50.67,0,0,0,31.3-26,49.5,49.5,0,0,0,5.6-22,44.64,44.64,0,0,0-1.4-13.1c-.4-1.5-.6-3.1-1-4.6a53.27,53.27,0,0,0-4.4-10.1.75.75,0,0,1-.1-.8,12.66,12.66,0,0,1,2.1,2.5c.7.9,1.3,1.8,2,2.6.6-.1.5-.5.5-.8.5-8.2,4.6-14.5,10.5-19.9a51.07,51.07,0,0,1,9.3-6.7,2,2,0,0,0,.9-.9c-.2-.3-.5-.2-.7-.1-8.9,2-17.9,3.6-26.9,5.5a15.94,15.94,0,0,1-3,.6,8.74,8.74,0,0,0-6,3.2c-1.8,2-3.9,3.9-5.8,5.8-.9-.6-1.5-1.4-2.4-2a10.86,10.86,0,0,1,2.3-2.5c2.1-2.2,4.3-4.3,6.5-6.5a2.67,2.67,0,0,1,1.4-.7c3.8-.7,7.7-1.6,11.5-2.4,8.1-1.7,16.2-3.2,24.3-4.9,2-.4,4-.7,5.9-1.2,2.7-.7,5.4-1.2,8.2-1.7a2.46,2.46,0,0,1,1.2-.1c-.1.5-.4.6-.8.8l-13.9,8.7c-1.6,1-3.1,2-4.7,2.9a29.68,29.68,0,0,0-7.1,6.6,33.9,33.9,0,0,0-6.8,11.4,16.44,16.44,0,0,0-.8,6.6c.6,5.6,1,11.3,1.6,16.9.2,2,.5,3.9.6,5.9a26,26,0,0,1-.5,6.2,55.11,55.11,0,0,1-26.3,38.1,42.15,42.15,0,0,1-15.7,5.9c-2.9.4-5.7,1.2-8.7,1.5a49.17,49.17,0,0,1-12.1-.6,53.79,53.79,0,0,1-25.2-11.2,17.63,17.63,0,0,0-9.6-3.8,10.12,10.12,0,0,0-8,2.4c-5.9,5.1-11.9,10.2-17.8,15.3-1.4,1.2-2.9,2.5-4.3,3.8-.2-.3,0-.5.2-.6,5.1-7,10.3-13.9,15.4-20.9l11.5-15.5a4.28,4.28,0,0,1,1.6-1.4l8.4-5.7a1,1,0,0,0,.5-.6c-.6-1.4-1.2-3-1.8-4.5a38.14,38.14,0,0,1-2-11.1,2.15,2.15,0,0,1,.4-1.5c.7.1.6.6.7,1.1.1,1.1.2,2.3.3,3.4a38.36,38.36,0,0,0,8.8,20.3,2.72,2.72,0,0,1,.9,2.4,11.84,11.84,0,0,1-3-3.3c-.9-1.1-1.7-2.3-2.5-3.5a25.94,25.94,0,0,0-3.9,2.5c-1.5.9-2.9,1.9-4.4,2.9A8.83,8.83,0,0,0,29,88.9c-2.9,4-5.9,8.1-8.9,12.1-.2.3-.6.5-.4,1.1,1.3-.4,2-1.6,3.1-2.2a16.27,16.27,0,0,1,3.7-1.3,17,17,0,0,1,3.9-.2c1.3.1,2.6.4,4,.5a15.09,15.09,0,0,0-1.5-2.8c-.7-.8-1.5-1.5-1.5-2.4Z"/><path class="cls-2" d="M67.28,26.1a35.07,35.07,0,1,1-28.2,40.8c0-.2-.1-.4-.1-.6A35.06,35.06,0,0,1,67.28,26.1Zm36,18.4a1.75,1.75,0,0,0-.3-1.7,35.13,35.13,0,0,0-7.1-8.3,36.12,36.12,0,0,0-10-5.9c-.4-.1-.8-.5-1.1,0,.1.7.7.7,1.1.8a34.3,34.3,0,0,1,10.4,6.5c.2.2.6.4.3.7h-.1a3.93,3.93,0,0,1-.6-.2,39.73,39.73,0,0,0-13.2-2.6,30.63,30.63,0,0,1-8-.8c-.4-.1-.8-.1-.9-.7a1.62,1.62,0,0,1,1.8-.7c.8.1,1.5.3,2.3.4a16.67,16.67,0,0,0,5,.2c.6-.1,1.4,0,1.5-.8s-.7-1-1.2-1.3a11.76,11.76,0,0,0-2-.7,2.4,2.4,0,0,1-1.8-1.7c1.3-.1,2.5.6,3.9.4-.5-1-1.4-1-2.1-1.1a35.9,35.9,0,0,0-14.6,0,33.6,33.6,0,0,0-10.2,4.1c-.4.2-.9.4-.7,1.3a12.57,12.57,0,0,1,3.8-1.5,9.52,9.52,0,0,1,4.1.6,1.82,1.82,0,0,1-2.3,1c-3.2-.5-5.4,1.3-7.4,3.4a1,1,0,0,0-.3,1,1.09,1.09,0,0,0,1.3.4,8.3,8.3,0,0,0,2.1-.6,1.45,1.45,0,0,1,2,.6c-2.6,1.6-5.4,2.3-7.9,3.8A71.74,71.74,0,0,0,44,46.3c.1-1.6,1.6-2.6,1.6-4.1-.7-.1-.8.4-1,.7a32.91,32.91,0,0,0-2.1,4.2A32.48,32.48,0,0,0,39.88,66a29,29,0,0,0,2.3,7.6,33.33,33.33,0,0,0,18.6,18.6,34.18,34.18,0,0,0,37.5-7.7,34.69,34.69,0,0,0,6.3-9.3,31.76,31.76,0,0,0,2.5-6.7,35,35,0,0,0-.5-17.9,46.81,46.81,0,0,0-1.8-4.8c-.2-.3-.3-.7-.8-.5-.4.5.1.9.2,1.3a35.32,35.32,0,0,1,3,12,8.06,8.06,0,0,1-2.9,7.2.85.85,0,0,1-.8-.7.37.37,0,0,1,.1-.3,2.22,2.22,0,0,1,.5-1.1c2-2.4,1.7-5.1,1.1-7.8a1.24,1.24,0,0,0-1.3-1.2c-.9.7-.9,1.7-1.1,2.7a1.83,1.83,0,0,1-1.6,1.8c0-3,.8-5.9.7-8.8a51.55,51.55,0,0,0-1-8.8C102.08,42.4,102.08,43.9,103.28,44.5Z"/><path class="cls-2" d="M36.48,88.2a2.05,2.05,0,0,1,2.1-1.6c2.3,2.5,4.4,5.3,7.1,7.5,2.1,1.6,4.2,3.1,6.4,4.5a41.36,41.36,0,0,0,5.5,2.9,40.38,40.38,0,0,0,4.5,1.6c1.2.3,2.4.6,3.6,1a.9.9,0,0,0,.5.1,29.37,29.37,0,0,1,5.1.5c3.8.5,7.4-.2,11.1-.8a47.11,47.11,0,0,0,7.6-2,21.35,21.35,0,0,0,4-2,41.06,41.06,0,0,0,3.9-2.4c1.5-1.1,3-2.2,4.5-3.4a33.33,33.33,0,0,0,4.6-4.6c.8-1,1.6-2.1,2.3-3.1a44.6,44.6,0,0,0,3.1-5.2,47.63,47.63,0,0,0,3.3-8.9,48.48,48.48,0,0,0,1.3-8.5c.9-10.3-1.3-19.8-7.5-28.1-.2-.2-.5-.4-.4-.9a1.09,1.09,0,0,1,1,.7,45.9,45.9,0,0,1,6.3,12,49.8,49.8,0,0,1,2.3,8.4,59.16,59.16,0,0,1,.4,9.4,42.06,42.06,0,0,1-2.5,12.2,49.3,49.3,0,0,1-3.6,7.7,46.55,46.55,0,0,1-5.6,7.6,49.85,49.85,0,0,1-5.3,5,39.25,39.25,0,0,1-7.2,4.8,20,20,0,0,1-5.8,2.5c-2.4.4-4.6,1.4-7.1,1.8a51.79,51.79,0,0,1-7.8.9,34.08,34.08,0,0,1-5.5-.5,27,27,0,0,1-3.9-.8,20.14,20.14,0,0,1-3.5-1,16.82,16.82,0,0,0-2.4-.7c-2.5-1.2-5.1-2.2-7.5-3.6-1.3-.8-2.6-1.5-3.9-2.3A24.51,24.51,0,0,1,44,96c-1.2-1.2-2.6-2.2-3.7-3.5A30.79,30.79,0,0,1,36.48,88.2Z"/><path class="cls-2" d="M72.78,99.6c16.3-.4,28.3-7.7,36-22,.9.4.6.9.4,1.4a25,25,0,0,1-2.3,3.9,37.07,37.07,0,0,1-7.8,8.5,2.85,2.85,0,0,1-1.4.8,1.59,1.59,0,0,0-1.5,1.2c-.1.3-.5.5-.8.7A50.48,50.48,0,0,1,77,100.5a20.48,20.48,0,0,1-3.5.1C72.88,100.7,72.88,100.7,72.78,99.6Z"/><path class="cls-2" d="M44.38,34.8c-.6-.9-.2-1.2.1-1.5a27.89,27.89,0,0,1,4.4-4,3.7,3.7,0,0,1,1.1-.5.78.78,0,0,0,.7-.3c1.1-1.9,3.2-2.6,5-3.5,5.8-3.3,12.2-4.3,18.8-4.4a.37.37,0,0,1,.3.1c.3.3.2.7-.1,1.1a46.25,46.25,0,0,0-11.1,1.4,39.32,39.32,0,0,0-10.3,4.5A36.16,36.16,0,0,0,44.38,34.8Z"/><path class="cls-2" d="M112.78,66c-.6-.3-.4-.8-.4-1.2A41.55,41.55,0,0,0,110,46.3a38.78,38.78,0,0,0-4.6-8.5c-.3-.4-.7-.7-.5-1.3.6-.3.9.2,1.2.5a29.61,29.61,0,0,1,2.8,4.4,39.63,39.63,0,0,1,4.8,20.8,24.52,24.52,0,0,1-.2,2.7C113.38,65.4,113.38,66,112.78,66Z"/><path class="cls-2" d="M79.88,20.7c.4.7.8,1.1,1.5,1a7,7,0,0,1,3.5.5,40.51,40.51,0,0,1,13.8,7.2c.1.1.2.2.2.3-.1.6-.6.5-.9.3-.7-.4-1.4-.9-2.1-1.3A37.34,37.34,0,0,0,77.78,22a1.33,1.33,0,0,1-1.4-.7C77.48,20.5,78.68,21.4,79.88,20.7Z"/><path class="cls-2" d="M40.58,39.9a69.7,69.7,0,0,0-3.7,7.8c-1,2.6-1.3,5.4-2.1,8.1-.9-.2-.8-.7-.7-1.2a38.23,38.23,0,0,1,2.4-8.8,36,36,0,0,1,2.6-5.2C39.28,40.1,39.58,39.5,40.58,39.9Z"/><path class="cls-2" d="M54.58,95.2c.7-.5,1.2-.1,1.8.2a42.06,42.06,0,0,0,8.4,3c1.6.4,3.3.5,4.9.9.4.1.9-.1,1.2.4-.1.4-.4.4-.7.4-1.3,0-2.5.5-3.5-.5a.75.75,0,0,0-.8-.1,4.24,4.24,0,0,1-2.7-.3,37.79,37.79,0,0,1-7.9-3C55.08,96,54.58,95.9,54.58,95.2Z"/><path class="cls-2" d="M46.48,88.5a64,64,0,0,0,7.1,5.5c-.4.8-.9.6-1.3.3a24.52,24.52,0,0,1-3.7-2.6,15.37,15.37,0,0,1-1.9-1.7C46.28,89.7,45.88,89.4,46.48,88.5Z"/><path class="cls-2" d="M113,68.3a27.52,27.52,0,0,1-1.6,5.6c-.2.3-.5.4-1,.1l1.5-5.4C112,68.2,112.28,68,113,68.3Z"/><path class="cls-2" d="M103.28,35.1l-3.6-3.6a1.12,1.12,0,0,1,1.6.1l.2.2c.8.9,2.1,1.6,2.3,3Z"/><path class="cls-2" d="M40.58,38.3a5.87,5.87,0,0,1,2.6-3c.2,1.3-.8,1.9-1.4,2.8C41.58,38.4,41.28,38.8,40.58,38.3Z"/><path class="cls-2" d="M34.28,57.1a1.58,1.58,0,0,1,.2,2.2l-.2.2C33.48,58.9,33.38,58.2,34.28,57.1Z"/><path class="cls-2" d="M109.78,76.7c-.4-.8-.2-1.1.6-1.3C110.68,76.1,110.58,76.5,109.78,76.7Z"/><path class="cls-2" d="M31.48,93.7l-.2-.1c.2-.1.1,0,.2.1Z"/><path class="cls-2" d="M65.48,78.9c-.3,1.1-1.1,1.2-1.9,1.1-.2.7.1,1.6-.8,1.8-1.6-1-4.3-4.8-5.2-7.4.4-.8,1.6-.6,1.9-1.6-.9-.7-1.6.3-2.6.2A21.14,21.14,0,0,1,55,64.4c.6-.2.8.5,1.5.3.6-.5,1.6-.8,1.9-1.9-.6-.3-.8,0-1.1.2a2.36,2.36,0,0,1-.9.6,2.09,2.09,0,0,1-1.3-2,26.44,26.44,0,0,1,2.6-10c0-.1.2-.2.3-.3a15.93,15.93,0,0,1,2.9,1.5c0,.7-1.1.5-.9,1.3.1.5.7.2,1.1.5a32,32,0,0,0-1.6,6.8,1.54,1.54,0,0,0-2.5-.1c-.4.4-1.2.6-.8,1.4.9.1,1.1-.9,2-1a2.24,2.24,0,0,1,1.2,1.9,21.85,21.85,0,0,0,1,6.3,2.51,2.51,0,0,1,.1,1.9c1.7,1.1,1.8,3.4,3.6,4.4.6-.5.2-.8-.1-1.1a17.8,17.8,0,0,1-2.8-5.5,18.5,18.5,0,0,1-.9-6.6,22,22,0,0,1,4.9-13,32,32,0,0,1,2.5-2.7c.3-.3.7-.7,1.2-.5.1.6-.3.7-.6.9-5.6,4.9-7.8,11.2-7.1,18.5a19.1,19.1,0,0,0,5.4,11.2,25.12,25.12,0,0,0,10.2,6.8,2,2,0,0,0,2.3-.4,22,22,0,0,0,3-3.1,1.82,1.82,0,0,1,1.6-.8c-.7.8-1.3,1.7-2,2.5S80,84,79.18,84.8a1.84,1.84,0,0,1-2,.4,27.49,27.49,0,0,1-11.3-7.4c-.3-.3-.5-.9-1.1-.9C64.48,77.4,64.48,77.4,65.48,78.9Z"/><path class="cls-2" d="M88,63.4c-.5-.3-.4-.7-.4-1.1a20.52,20.52,0,0,0-7.4-12.4C75.48,46,70,44.9,64,45.8a28.5,28.5,0,0,0-11.7,5.1,2.86,2.86,0,0,0-1.4,3.7c.4,1.2.7,2.4,1.2,3.6a1.51,1.51,0,0,1-.1,1.7,27.79,27.79,0,0,1-2.1-7.1,1.51,1.51,0,0,1,.7-1.4l2-1.6c.2-.2.5-.4.5-.8-.3-.6-.8,0-1.3-.4-.6-1,.7-2.1.2-3.2-1,0-.8,1-1.3,1.4a3,3,0,0,1,1.5-3.1,23.47,23.47,0,0,1,4.5-2.2,2.32,2.32,0,0,1,1.6-.3,9.36,9.36,0,0,1,1.1,3.7c-1,1.1-2.6.9-3.5,2.1.8.6,1.3.1,1.8-.1A21.72,21.72,0,0,1,69.48,45a21.72,21.72,0,0,1,18.9,17C88.28,62.3,88.48,62.9,88,63.4Z"/><path class="cls-2" d="M98.58,44.6c-.5.3-.9-.5-1.3,0s.5.7.4,1.1-1.1.1-1,.9.9.1,1.2.4-.2.6,0,.9.7,0,1.2.2a27.43,27.43,0,0,1-.5,8.1,27.13,27.13,0,0,1-4.1-.9,47.06,47.06,0,0,0,.3-7.5c.4-.7,1.3-.4,1.2-1.2a.67.67,0,0,0-.7-.4,1.14,1.14,0,0,1-.8-.3c-.2-1.6-.6-3.1-2.6-3.5a3.4,3.4,0,0,1,.3-2c.3-1.3,0-1.6-1.3-1.3a1.39,1.39,0,0,1-.9,0,1.67,1.67,0,0,1,.5-1.6,16.81,16.81,0,0,1,3.2.9,7.84,7.84,0,0,0,1.4.5,3.78,3.78,0,0,1,3.2,3.8A5.41,5.41,0,0,0,98.58,44.6Z"/><path class="cls-2" d="M91.68,52.4c-.4-.1-.4-.4-.6-.6a27.53,27.53,0,0,0-13.8-11.6A25.76,25.76,0,0,0,66,38.5a31.08,31.08,0,0,0-10.8,2.6,33.28,33.28,0,0,0-11.3,8,1.83,1.83,0,0,0-.6,1.7c.7,5.1,1.7,10,4.4,14.5a32.29,32.29,0,0,0,5.3,7,2.22,2.22,0,0,1,.8,1.3c-.4.2-.6-.1-.7-.3a33.33,33.33,0,0,1-8.2-12.1,43.72,43.72,0,0,1-2.4-10.1,2.86,2.86,0,0,1,.8-2.6,37.38,37.38,0,0,1,11.4-8,30.38,30.38,0,0,1,11.5-2.8,27.59,27.59,0,0,1,11.4,1.8,28.78,28.78,0,0,1,13.5,11.1C91.48,51.1,92.08,51.7,91.68,52.4Z"/><path class="cls-2" d="M71.58,80.1c1.4-.1,2.6-.2,3.8-.3a26.64,26.64,0,0,0,18.8-10.6A27.82,27.82,0,0,0,99.28,58a32.82,32.82,0,0,0,.8-8.8,44.12,44.12,0,0,0-1.3-8.1,2.79,2.79,0,0,0-1.8-2,34.87,34.87,0,0,0-15.9-3.2,30.13,30.13,0,0,0-6.7,1,2.88,2.88,0,0,1-2.4-.1,28.52,28.52,0,0,1,4.8-1.3,35.12,35.12,0,0,1,20.7,2.9,3.07,3.07,0,0,1,1.9,2.1,43.14,43.14,0,0,1,1.4,10.1A31.15,31.15,0,0,1,98,64.1a27.56,27.56,0,0,1-14.4,14.3,30.94,30.94,0,0,1-10.3,2.4A1.9,1.9,0,0,1,71.58,80.1Z"/><path class="cls-2" d="M95.18,71.3a17.16,17.16,0,0,1-1.3,4.8,34.23,34.23,0,0,1-11.5,15.3c-2.8,2.1-2.8,2.1-6.2,1a37.37,37.37,0,0,1-11.7-6.1,29.42,29.42,0,0,1-10.7-16.8,26.51,26.51,0,0,1,.5-13.4,29.18,29.18,0,0,1,2.1-5.6,3.16,3.16,0,0,1,1.4-1.4,2,2,0,0,1-.4,1.4,26.43,26.43,0,0,0-1.7,22.3,29.09,29.09,0,0,0,12,14.8,37.23,37.23,0,0,0,10.9,4.6,1.6,1.6,0,0,0,1.5-.2c6.7-4.7,11.5-10.8,13.7-18.8C94.08,72.5,94.18,71.7,95.18,71.3Z"/><path class="cls-2" d="M54.08,84a1.43,1.43,0,0,1,1.5,1.1c1,2.8,3.4,4,5.9,4.9.3.1.5.1.8.2a1,1,0,0,0,1.2-.5,1.1,1.1,0,0,0-.3-1.2,17.38,17.38,0,0,0-1.5-1.3,1.59,1.59,0,0,1-.6-2c.5-.2.7.1,1,.3a54.65,54.65,0,0,0,6.8,4.7,31.64,31.64,0,0,0,6.8,2.9c.3.1.5.1.7.4s-.3.3-.5.3a34,34,0,0,1-18.2-4,7,7,0,0,1-3.6-4.9A.75.75,0,0,1,54.08,84Z"/><path class="cls-2" d="M97.88,74.4c.7,1,.2,1.7-.3,2.4a33.61,33.61,0,0,0-3.5,4.9c-.2.4-.5.9-.7,1.3s-.3.8.1,1.1a1,1,0,0,0,1.2.1,9.51,9.51,0,0,0,2-1.5,2.8,2.8,0,0,1,2.4-1c-.5,3-11.7,10.4-16,10.7-.2-.4.2-.5.4-.7a37.13,37.13,0,0,0,9.2-10.9A26.67,26.67,0,0,1,97,75.1,3.11,3.11,0,0,1,97.88,74.4Z"/><path class="cls-2" d="M49.38,74.7a1.62,1.62,0,0,1-1.6-1.4,28.4,28.4,0,0,0-2.9-6.1c-.4-.6-.7-1.6-1.7-1.2s-.6,1.3-.5,2a9.36,9.36,0,0,0,.4,1.6,2.6,2.6,0,0,1-.4,2.4c-2.2-3.3-3.3-14.6-1.3-19.2.3,0,.3.2.4.5A37.73,37.73,0,0,0,47,67.8a20.94,20.94,0,0,1,2.4,5.8A2,2,0,0,1,49.38,74.7Z"/><path class="cls-2" d="M81.68,83.9a1.57,1.57,0,0,1,1.1,1.8,1.45,1.45,0,0,0,.9,1.9c.1,0,.2.1.3.1a24.36,24.36,0,0,1-4.3,3.5.75.75,0,0,1-.8.1,21.84,21.84,0,0,1-5.1-1.7.78.78,0,0,1-.4-.4,22.61,22.61,0,0,1,1.7-3.5,5.45,5.45,0,0,1,2.2.5,2.18,2.18,0,0,0,2.2-.4A20,20,0,0,1,81.68,83.9Z"/><path class="cls-2" d="M64,71.2a20.44,20.44,0,0,0,6.9,1.6c8.2.4,15.5-3.3,19.5-10.9a24.6,24.6,0,0,0,2.2-16,2,2,0,0,0-1.5-1.7c-1.4-.4-2.9-.8-4.3-1.1a2,2,0,0,1-1.5-.7c.3-.4.6-.1.8-.2a27,27,0,0,1,5.6,1.4,1.81,1.81,0,0,1,1.4,1.6,24.7,24.7,0,0,1-3.9,19.9A19.89,19.89,0,0,1,78,72.9a21.16,21.16,0,0,1-12.7-.3A1.85,1.85,0,0,1,64,71.2Z"/><path class="cls-2" d="M82,43.9l-2.4,3.4c-1.4-.3-2.5-1.4-3.9-1.9s-2.8-.9-4.2-1.3c0-.8.5-.9.9-1.2,1-.8,1-1,.2-1.9-.2-.3-.6-.5-.5-.9C73.88,39.6,80.08,42,82,43.9Z"/><path class="cls-2" d="M86.38,54.5a27.59,27.59,0,0,0-5.9-6.4,2.37,2.37,0,0,1,.9-1.5c.5.1.5.7,1.1.7.9-.6-.4-1.3-.1-2,.5-.1.4.7.8.7.6.1.5-.5.9-.7A23,23,0,0,1,90,52.2,14.76,14.76,0,0,1,86.38,54.5Z"/><path class="cls-2" d="M71.08,39.7a29.29,29.29,0,0,1-.7,4.1,3.34,3.34,0,0,1-1.7.1,18.6,18.6,0,0,0-4.7.3c-1.4.3-1.6.1-2-1.2l-.4-1.4c-.1-.4-.6-.7-.9-1.2A21.5,21.5,0,0,1,71.08,39.7Z"/><path class="cls-2" d="M51,49.4a1.6,1.6,0,0,1-.7.9,2.72,2.72,0,0,0-1.1,3.3c.3,1.1.1,1.3-.9,1.5a10.76,10.76,0,0,1-3.1.7,18,18,0,0,1-.8-3.9,3.19,3.19,0,0,1,1.3-3.4,33.57,33.57,0,0,1,2.9-2.4C49.38,47.2,50.28,48.3,51,49.4Z"/><path class="cls-2" d="M90.68,79.1a28.3,28.3,0,0,1-5,6.9,30,30,0,0,1-3.2-3c2-1.8,2.7-4.5,5.3-5.6,1.2-.5,1.1-.6,2,.4.2.3.5.5.7.8A.76.76,0,0,0,90.68,79.1Z"/><path class="cls-2" d="M66.38,79.7a67,67,0,0,0,6,4.5,34.92,34.92,0,0,1-1.9,3.9,25.53,25.53,0,0,1-7-5.2c.5-.7,1,.3,1.4-.4C64.68,81.4,65.28,80.5,66.38,79.7Z"/><path class="cls-2" d="M94.48,66.8a22.41,22.41,0,0,1-3.4-2.7,28.85,28.85,0,0,0,2.6-6.3c.7-.1.7.7,1.1.7.6.2.9-.3,1.4-.5.5.4.8,1.2,1.9.5A23.57,23.57,0,0,1,94.48,66.8Z"/><path class="cls-2" d="M88.28,67.7a21.83,21.83,0,0,1,3.4,2.6,21.16,21.16,0,0,1-6.6,5.3,20.07,20.07,0,0,1-1.9-3.9A25,25,0,0,0,88.28,67.7Z"/><path class="cls-2" d="M89,37.5a5.54,5.54,0,0,1-.2,1.8c-.2,1.1.2,1.4,1.3,1.3a.93.93,0,0,1,1,.1,2.82,2.82,0,0,1-.4,1.5c-1.3,0-2.4-.5-3.6-.6l-2.5-.3a4.61,4.61,0,0,1-2.7-1.1,1.13,1.13,0,0,1-.4-1.5h0a3,3,0,0,1,2-1.8A10.55,10.55,0,0,1,89,37.5Z"/><path class="cls-2" d="M73.08,79a20.35,20.35,0,0,1-.2-4.3L79,73.6a14.09,14.09,0,0,1,1.7,3.2.61.61,0,0,1-.5.9A23.52,23.52,0,0,1,73.08,79Z"/><path class="cls-2" d="M51.78,64.6c-.9.4-2.2-.2-2.5,1.6a25.67,25.67,0,0,1-2.7-5.2c-.2-.5.1-.8.6-.9l3.2-.9A5.83,5.83,0,0,1,51.78,64.6Z"/><path class="cls-2" d="M49.78,78.8c-.4,1.1-.6,2.1-1.7,2.8-.2-.1-.4-.1-.5-.2-1.9-2.3-3.7-4.8-4-7.9a3.3,3.3,0,0,1,1.3-3.2c.8.2,1.3.7.8,1.5-1.1,1.9-.2,3.5.6,5.1a1.8,1.8,0,0,0,2.1,1.3C48.88,78,49.28,78.4,49.78,78.8Z"/><path class="cls-2" d="M101.58,72.1a3.27,3.27,0,0,1,3.3.3c-1.1,3-2.4,5.7-5,7.6a3.78,3.78,0,0,1-2.3.8,1.34,1.34,0,0,1-1.4-.7,1.11,1.11,0,0,1,1.3-1.1h.2a2,2,0,0,0,1.9-.8,10.52,10.52,0,0,0,2-2.7,1.35,1.35,0,0,0,0-1.7A1.71,1.71,0,0,1,101.58,72.1Z"/><path class="cls-2" d="M68.38,28a3.22,3.22,0,0,1,2.3-.6,13.78,13.78,0,0,1,6.7.7,4.1,4.1,0,0,1,2.1,1.8c.3.5.3,1-.2,1.3a.89.89,0,0,1-1.3-.3h0c-1.1-2.1-3.1-1.9-5-2.1a1.89,1.89,0,0,0-1.8,1.1c-.8,1.2-1.5,1.2-2.2,0A2.31,2.31,0,0,1,68.38,28Z"/><path class="cls-2" d="M62.08,52.4a15.93,15.93,0,0,1-2.9-1.5c0-.7,1-.6.8-1.4-.2-.5-.7,0-1.1-.2a.6.6,0,0,1,.1-.4,1.76,1.76,0,0,1,.8-.9,14.83,14.83,0,0,1,6.5-1.3Q64,49.55,62.08,52.4Z"/><path class="cls-2" d="M105.28,71.1a4.21,4.21,0,0,1-2.5-1.6,8.59,8.59,0,0,1-1.5-3.2,3,3,0,0,1,1-2.8c.6,1.4.1,3.3,1.8,4.2,1-.7,1.1-2.1,2.4-2.7A16.55,16.55,0,0,1,105.28,71.1Z"/><path class="cls-2" d="M56.68,83.7c-.4.4-.8,0-1.1-.2a6.44,6.44,0,0,0-2.4-.5c-.9.1-1.2.6-.7,1.3a5.24,5.24,0,0,1,1,2.6,20.39,20.39,0,0,1-4.7-4.1c1-1.6,2.6-1.6,4.1-1.5C55.28,81.4,56.28,82,56.68,83.7Z"/><path class="cls-2" d="M61,29.9a15,15,0,0,1,5.9-1.8,3.08,3.08,0,0,1-.1,2.8,6.86,6.86,0,0,1-2.1,3,2.9,2.9,0,0,1-2.7.5c.1-.7.6-.8.9-1.1a6.73,6.73,0,0,0,1.4-1.5c.5-.9.2-1.4-.8-1.3A4,4,0,0,1,61,29.9Z"/><path class="cls-2" d="M70.48,79.1c-2.4-1.2-3.7-3.2-5.1-5.3a32,32,0,0,0,6.2.9,6.24,6.24,0,0,1,.3,3.3c-.7.3-1-.6-1.6-.2C69.88,78.2,70.68,78.5,70.48,79.1Z"/><path class="cls-2" d="M82.68,58.3a1.23,1.23,0,0,1,.2,1.3L78,62.9a2.39,2.39,0,0,1-.5-1.4c.7-.9,1.9-1.1,2.7-2.1-1-.7-2.2-.6-3.2-1.1a2.06,2.06,0,0,1-.3-1.5C78.78,57,80.68,57.9,82.68,58.3Z"/><path class="cls-2" d="M70.68,58c.6,1.2.5,1.3-.4,2-.6.5-1.3.9-2,1.5.7.7,1.5.5,2.2.7,1.2.3,1.3.4,1.4,1.7-.3.3-.6.2-.9.2L66.68,63c-.4-.1-.9-.2-1-.8s.2-.8.6-1.1l3.8-2.8A.49.49,0,0,1,70.68,58Z"/><path class="cls-2" d="M74.48,64.5a4,4,0,0,1-1.9.2c.3-2.8,1-5.6,1.4-8.4a3.2,3.2,0,0,1,1.9-.5A83,83,0,0,1,74.48,64.5Z"/><path class="cls-2" d="M59.18,87.7a1.46,1.46,0,0,1-1.3-.7c1.3-2.4-.3-4-1.7-5.7a3.58,3.58,0,0,1-1.1-2.5c.7-.3,1.1.2,1.4.5a11.85,11.85,0,0,1,3.3,5A2.88,2.88,0,0,1,59.18,87.7Z"/><path class="cls-2" d="M58.78,33.8c.9,1.9,2.6,1.6,4.2,1.6a15.52,15.52,0,0,0,2.1-.4,2,2,0,0,1,2.2.5c0,.3-.3.5-.5.6a10.77,10.77,0,0,1-7.5.4,5.36,5.36,0,0,1-1.1-.5c-.4-.3-.9-.7-.8-1.3S58.08,33.9,58.78,33.8Z"/><path class="cls-2" d="M98.58,67.7a2.56,2.56,0,0,1,0-2.1,9.79,9.79,0,0,1,3.7-5.8,2.39,2.39,0,0,1,1.4-.5.92.92,0,0,1,1,.9c0,.6-.3.9-.8.9a2.09,2.09,0,0,0-2,1.3,10.67,10.67,0,0,0-1.6,3.2A3.59,3.59,0,0,1,98.58,67.7Z"/><path class="cls-2" d="M89.18,54.9a1.58,1.58,0,0,0,2.1-.5,14.15,14.15,0,0,1-2,6.9,3.63,3.63,0,0,1-.7-1.7,12,12,0,0,0-1.3-3.1.94.94,0,0,1,0-1.3c.7.2,0,.9.6,1.1C88.78,56.3,88.38,55.2,89.18,54.9Z"/><path class="cls-2" d="M66.18,34c.4-1,.9-1.3,1.8-1a13.54,13.54,0,0,0,4.9.7,3.11,3.11,0,0,1,2.6.9C72.18,35.9,69.28,35.1,66.18,34Z"/><path class="cls-2" d="M54.08,80.3c-.6.2-1.3.1-1.4-.6-.4-2.5-2-4.5-2.5-6.9a.6.6,0,0,1,.1-.4C52.18,73,54.48,77.6,54.08,80.3Z"/><path class="cls-2" d="M100.28,67.5c.7.5,1,1.1.4,1.6-1.8,1.5-2.8,3.7-4.4,5.4a.91.91,0,0,1-1.1.4C95.88,71.7,97.88,69.5,100.28,67.5Z"/><path class="cls-2" d="M93.18,67.3c-.9.3-1,1-1.3,1.6a7.05,7.05,0,0,1-2.7-2.1,3.71,3.71,0,0,1,1.3-1.7A7.29,7.29,0,0,1,93.18,67.3Z"/><path class="cls-2" d="M46.58,74.4c1.2.6,2.5,1.2,3.8,1.7.6.3.7.7.7,1.7C48.58,77.7,46.68,76.4,46.58,74.4Z"/><path class="cls-2" d="M100,71.3a15.23,15.23,0,0,1,.6,4.2,1.5,1.5,0,0,1-1,1.4.55.55,0,0,1-.4-.6,12.41,12.41,0,0,0-.3-2.7A2.54,2.54,0,0,1,100,71.3Z"/><path class="cls-2" d="M70,32.2a26.09,26.09,0,0,1,2.7-2.2,2.11,2.11,0,0,1,2.4.1,36.86,36.86,0,0,1-3.4,2.5,1.2,1.2,0,0,1-1.7-.4Z"/><path class="cls-2" d="M82.28,74.9c-1.5-.1-1.7-.2-2-1.7a3.1,3.1,0,0,1,1.8-.9C83.08,73.5,83.08,73.6,82.28,74.9Z"/><path class="cls-2" d="M80,39.3a26,26,0,0,0-4.2-1.5C77.68,36.7,79.68,37.4,80,39.3Z"/><path class="cls-2" d="M59.58,41.3A2.66,2.66,0,0,1,61,44.5C60.28,44.3,59.78,43.2,59.58,41.3Z"/><path class="cls-2" d="M92.68,73.9c-.5,2-.8,2.1-2.2,1.8A5.48,5.48,0,0,1,92.68,73.9Z"/><path class="cls-2" d="M50.78,68.3a3,3,0,0,1,1.3-.5,3.36,3.36,0,0,1,.4,2.4A15.37,15.37,0,0,1,50.78,68.3Z"/><path class="cls-2" d="M73.68,84.6c.7,1,0,1.5-.5,2.3C72.58,85.9,73,85.3,73.68,84.6Z"/><path class="cls-2" d="M50.08,66.7c.2-.8.5-1.2,1.1-.9a.48.48,0,0,1,.2.6v.1C51.18,67.1,50.68,67,50.08,66.7Z"/><path class="cls-2" d="M46,58.7a1,1,0,0,1-.4-1.1c.5-.3.8,0,1,.3C46.58,58.4,46.38,58.7,46,58.7Z"/><path class="cls-2" d="M48.88,57.3a.72.72,0,0,1,.5-.9h.1a1.05,1.05,0,0,1,.5.9A.65.65,0,0,1,48.88,57.3Z"/><path class="cls-2" d="M72.18,87.4c.7.6.5,1-.1,1.4C71.18,88.3,71.78,87.9,72.18,87.4Z"/><path class="cls-2" d="M47.48,58.8c.3-.6.7-.6,1.2-.4C48.28,58.9,48,59,47.48,58.8Z"/><path class="cls-2" d="M48.08,56.3c-.3.7-.6.7-1.1.5C47.08,56.3,47.48,56.3,48.08,56.3Z"/><path class="cls-2" d="M90.58,77.1c.4-.3.7-.3.8,0a.37.37,0,0,1-.2.5h-.1C90.78,77.8,90.58,77.5,90.58,77.1Z"/><path class="cls-2" d="M95.08,56.8l.2.1a.22.22,0,0,1-.2.2c-.1,0-.1-.1-.1-.2Z"/><path class="cls-2" d="M97.48,57.4l-.1-.1.1-.1v.2Z"/><path class="cls-2" d="M89.78,53.6c.1,0,.2,0,.2.1v.2c0,.1-.1.1-.2,0v-.3Z"/><path class="cls-2" d="M71.78,41.8h0c.2,0,.2.1.1.1h-.1Z"/><path class="cls-3" d="M99.86,151a17.51,17.51,0,0,1-3.69,0V123.38a2.05,2.05,0,0,1,1-.27h2.73Z"/><path class="cls-3" d="M132.72,141.91V123.52a31.73,31.73,0,0,1,3.65-.14v27.73a2.46,2.46,0,0,1-1-.68l-21.1-21.5a2.68,2.68,0,0,1-.81-1.9,34.64,34.64,0,0,1,.27-3.92c6.22,6.36,12.44,12.71,18.53,19.07Z"/><path class="cls-3" d="M113.64,131.77l3.39,3.38a1.16,1.16,0,0,1,.4.81v14.88a36.92,36.92,0,0,1-3.79.13Z"/><path class="cls-3" d="M39,126.9a17.13,17.13,0,0,1,0-3.65c5-.14,12.64,4.86,12.77,13.79.14,8.52-7.12,14.07-12.77,14.07a17.13,17.13,0,0,1,0-3.65,10.14,10.14,0,0,0,7.26-4.6,9.48,9.48,0,0,0,1.61-6C47.91,132.85,45.63,128.11,39,126.9Z"/><path class="cls-3" d="M36.62,123.11v3.79A10.19,10.19,0,0,0,27.75,138c.27,4.6,3.63,8.12,8.87,9.33a15.91,15.91,0,0,1,0,3.65c-5.65.55-12.23-5.95-12.77-12.71A14.24,14.24,0,0,1,36.62,123.11Z"/><path class="cls-3" d="M41.46,132.17a4.18,4.18,0,0,1,0,2.57c-1.48.95-3.23,1.49-5,2.44a14,14,0,0,0,2,.94l1.48.68c1.75.68,1.88,1.22,1.21,3.25l-7.93-3.52c-.27-.14-.4-.27-.67-.41a2.66,2.66,0,0,1,0-1.48Z"/><path class="cls-3" d="M60.71,126.89a15,15,0,0,1,0-3.54.4.4,0,0,1,.27-.14c4,0,7.91-.41,11.73.41a12.66,12.66,0,0,1,10.36,12,16.12,16.12,0,0,1-.68,6.27,12.63,12.63,0,0,1-10.5,8.87c-3.68.68-7.36.14-11.18.27a16.17,16.17,0,0,1,0-3.68,2.26,2.26,0,0,1,1.36-.27c2.46,0,4.91-.14,7.23,0,5.86.27,10-4.37,9.82-10.23a10.67,10.67,0,0,0-2.32-6.55A8.68,8.68,0,0,0,70,127H61.66A1.08,1.08,0,0,1,60.71,126.89Z"/><path class="cls-3" d="M69.71,137.53a40.86,40.86,0,0,0-4.37-2,2.7,2.7,0,0,1,0-2.05,2.23,2.23,0,0,1,1.23.41l5.73,2.86c.54.28,1.09.41,1,1.09s-.54.82-1.09,1.09l-5.72,2.6a2.74,2.74,0,0,1-1.1.27c-.4-1.77-.4-1.91,1.23-2.73A32.13,32.13,0,0,0,69.71,137.53Z"/><path class="cls-3" d="M60.57,143a8.12,8.12,0,0,1-1.77.13c-.27,0-.55,0-.68-.27l4.09-11.18a7.49,7.49,0,0,1,2.45.13Z"/></g></g></svg>