<svg xmlns="http://www.w3.org/2000/svg" viewBox="0 0 158.57 85.42"><defs><style>.cls-1{fill:#43b5a0;}</style></defs><g id="Capa_2" data-name="Capa 2"><g id="Capa_1-2" data-name="Capa 1"><path class="cls-1" d="M32,57.67c.49.06.58.53.77.84A56.78,56.78,0,0,0,45.43,73a45.49,45.49,0,0,0,33.43,9.94A45,45,0,0,0,110.35,65.3,44,44,0,0,0,118.79,47a40.86,40.86,0,0,0,.87-11.67c-.12-1.39,0-2.78-.16-4.18a42,42,0,0,0-2.23-9.52.81.81,0,0,1,0-.71,9,9,0,0,1,1.41,2.53c.44.88.88,1.76,1.29,2.6.5,0,.54-.31.6-.57,1.75-7.08,6.34-11.93,12.33-15.67a47.28,47.28,0,0,1,9.2-4.37,1.76,1.76,0,0,0,.92-.62c-.12-.29-.37-.23-.6-.22-8.11.33-16.22.22-24.33.47a21.08,21.08,0,0,1-2.75.06A7.88,7.88,0,0,0,109.58,7c-1.93,1.47-4,2.77-6,4.17-.72-.64-1.1-1.45-1.74-2.11a9.56,9.56,0,0,1,2.39-1.8c2.22-1.56,4.48-3.06,6.71-4.62a2.17,2.17,0,0,1,1.33-.42c3.47,0,6.94-.13,10.41-.24,7.35-.22,14.7-.19,22-.37,1.8,0,3.6,0,5.39-.11,2.47-.17,4.94-.16,7.42-.18a2.63,2.63,0,0,1,1.08.08c-.15.39-.49.46-.82.59L144.19,7.36c-1.52.6-3,1.21-4.56,1.76a25.32,25.32,0,0,0-7.23,4.62,29.62,29.62,0,0,0-7.78,8.86,13.57,13.57,0,0,0-1.75,5.65c-.36,5-.91,10-1.29,15-.13,1.75-.23,3.51-.42,5.25a22,22,0,0,1-1.47,5.28,48.89,48.89,0,0,1-29.08,29A37.68,37.68,0,0,1,76,85.41c-2.59-.11-5.2.13-7.79-.1a41.58,41.58,0,0,1-10.44-2.47A47.71,47.71,0,0,1,37.57,69a15,15,0,0,0-7.76-4.83,9.3,9.3,0,0,0-7.4.81c-6,3.53-12,7-18,10.47C3,76.3,1.5,77.18,0,78.06c-.1-.32.11-.42.24-.54q8.39-7.9,16.83-15.75l12.52-11.7a5.16,5.16,0,0,1,1.59-1c2.74-1.18,5.47-2.4,8.21-3.61A1,1,0,0,0,40,45c-.27-1.35-.61-2.79-.83-4.24a35.64,35.64,0,0,1,0-10c.09-.66.12-.66.61-1.26.58.18.45.64.41,1.06-.1,1-.23,2-.28,3A33.73,33.73,0,0,0,44.27,52.7a2.52,2.52,0,0,1,.39,2.22,11.9,11.9,0,0,1-2.11-3.36c-.61-1.1-1.09-2.29-1.64-3.48a26,26,0,0,0-3.81,1.59c-1.45.57-2.86,1.22-4.3,1.83A7.45,7.45,0,0,0,30.55,53c-3.21,3-6.46,6.08-9.68,9.12-.22.21-.56.34-.57.9,1.18-.18,2-1.09,3.06-1.38a15.72,15.72,0,0,1,3.42-.53,12.86,12.86,0,0,1,3.43.44c1.12.26,2.17.75,3.39,1.11A15.57,15.57,0,0,0,32.74,60c-.23-.8-.82-1.49-.68-2.38Z"/><path class="cls-1" d="M74.29,4.43a31.15,31.15,0,1,1-31.2,31.1c0-.17,0-.35,0-.53A31.19,31.19,0,0,1,74.29,4.43Zm28.45,21.84a1.56,1.56,0,0,0,0-1.51,32.92,32.92,0,0,0-4.86-8.35A30.53,30.53,0,0,0,90.1,9.68c-.31-.18-.62-.57-1-.16,0,.59.51.69.86.91a30.29,30.29,0,0,1,8,7.31c.16.19.45.4.13.69H98a5.89,5.89,0,0,1-.52-.29,33.28,33.28,0,0,0-11.09-4.36,27.86,27.86,0,0,1-6.88-2c-.32-.15-.72-.21-.69-.74a1.42,1.42,0,0,1,1.71-.34l1.92.69a16.29,16.29,0,0,0,4.31,1c.54,0,1.22.18,1.44-.5s-.43-1-.86-1.29a8.41,8.41,0,0,0-1.6-.9,2.23,2.23,0,0,1-1.33-1.82c1.18.12,2.06.91,3.31,1-.3-1-1.06-1.11-1.64-1.34A30.91,30.91,0,0,0,73.3,5.23a32.11,32.11,0,0,0-9.6,1.9c-.38.14-.85.23-.8,1a11.09,11.09,0,0,1,3.52-.66,7.15,7.15,0,0,1,3.45,1.2,1.66,1.66,0,0,1-2.14.55c-2.7-.92-4.9.23-7,1.77a.85.85,0,0,0-.4.84c.19.48.62.54,1.08.54a8.71,8.71,0,0,0,1.9-.21c.71-.19,1.22.05,1.63.87-2.49.94-5.11,1.09-7.52,2a64.26,64.26,0,0,0-7,3.36c.3-1.36,1.77-2,2.08-3.31-.63-.19-.8.21-1,.45A28.16,28.16,0,0,0,49,18.86a30.75,30.75,0,0,0-5.09,16,26.6,26.6,0,0,0,.76,7A29.64,29.64,0,0,0,57.84,61.09a30.39,30.39,0,0,0,34-.72,30.16,30.16,0,0,0,7-7.08,31.39,31.39,0,0,0,3.26-5.43,30.56,30.56,0,0,0,2.42-15.68,28.06,28.06,0,0,0-.84-4.46c-.09-.31-.13-.66-.61-.57-.44.39-.1.83,0,1.21a32.21,32.21,0,0,1,.68,10.94,7.16,7.16,0,0,1-3.65,5.81.64.64,0,0,1-.55-.74.52.52,0,0,1,.1-.26,2,2,0,0,1,.61-.88c2.11-1.76,2.33-4.16,2.2-6.66,0-.57-.18-1.12-.92-1.21-.92.42-1.07,1.34-1.36,2.15a1.67,1.67,0,0,1-1.72,1.27c.52-2.63,1.62-5,2-7.53a50.4,50.4,0,0,0,.53-7.86C102,24.27,101.75,25.63,102.74,26.27Z"/><path class="cls-1" d="M37.36,53.66a1.88,1.88,0,0,1,2.09-1.09,70.08,70.08,0,0,0,4.95,7.7,63.54,63.54,0,0,0,4.85,5,37.83,37.83,0,0,0,4.35,3.42,33.25,33.25,0,0,0,3.66,2.13,32.08,32.08,0,0,1,3,1.48,1,1,0,0,0,.44.19A18.74,18.74,0,0,1,65,73.77c3.22,1,6.52,1,9.8,1.11a41.13,41.13,0,0,0,7-.55,20.58,20.58,0,0,0,3.77-1.09,37.55,37.55,0,0,0,3.78-1.43c1.5-.71,3-1.43,4.45-2.26a25.74,25.74,0,0,0,4.72-3.32A29.31,29.31,0,0,0,101,63.85c1.16-1.35,2.52-2.52,3.57-4a42.58,42.58,0,0,0,4.33-7.26,49.25,49.25,0,0,0,2.51-7.18c2.4-8.81,2.07-17.45-2-25.77-.11-.23-.35-.44-.21-.81.45.09.6.42.77.78a42.83,42.83,0,0,1,3.6,11.48,39.27,39.27,0,0,1,.61,7.73,49.14,49.14,0,0,1-1.15,8.27,37.65,37.65,0,0,1-4.17,10.25,50.16,50.16,0,0,1-4.35,6.18,38,38,0,0,1-6.11,5.72A45,45,0,0,1,93,72.73a40.5,40.5,0,0,1-7.06,3.06A16.71,16.71,0,0,1,80.49,77c-2.15,0-4.28.49-6.45.45A47.24,47.24,0,0,1,67.1,77a23.77,23.77,0,0,1-4.68-1.32,27.16,27.16,0,0,1-3.32-1.29,18.71,18.71,0,0,1-2.93-1.48,17.76,17.76,0,0,0-2-1c-2-1.42-4.07-2.77-6-4.4-1-.87-2.07-1.73-3.05-2.63a20.13,20.13,0,0,1-2.57-3.11c-.89-1.22-1.88-2.36-2.69-3.63A45.66,45.66,0,0,1,37.36,53.66Z"/><path class="cls-1" d="M67.18,69.52q21.45,3.42,35-13.42c.69.5.37.89.1,1.27a26,26,0,0,1-2.67,3.07,34,34,0,0,1-8.17,6.19,3.6,3.6,0,0,1-1.33.51,1.37,1.37,0,0,0-1.46.82c-.1.22-.52.33-.82.44A43.74,43.74,0,0,1,70.72,71a22.62,22.62,0,0,1-3.08-.44C67.1,70.48,67.1,70.44,67.18,69.52Z"/><path class="cls-1" d="M52.9,8.34c-.38-.85,0-1.11.3-1.33a25,25,0,0,1,4.48-2.75,3.08,3.08,0,0,1,1-.26c.23,0,.54,0,.67-.19,1.31-1.48,3.2-1.72,4.9-2.3C69.88-.4,75.6-.27,81.34.65c.08,0,.14.07.22.1.18.33.08.61-.23.94a40.81,40.81,0,0,0-9.93-.55,35.93,35.93,0,0,0-9.76,2.27A39,39,0,0,0,52.9,8.34Z"/><path class="cls-1" d="M107.53,46.62c-.45-.36-.21-.76-.11-1.12a36.11,36.11,0,0,0,.84-16.5,34,34,0,0,0-2.67-8.17c-.16-.38-.54-.73-.22-1.24.57-.17.75.28,1,.64a24.6,24.6,0,0,1,1.73,4.33A35.33,35.33,0,0,1,109,43.47c-.17.78-.39,1.55-.63,2.3C108.2,46.16,108.1,46.66,107.53,46.62Z"/><path class="cls-1" d="M86.1,1.76c.23.65.52,1.1,1.12,1.09a6.45,6.45,0,0,1,3,1,35.46,35.46,0,0,1,10.88,8.47,1.43,1.43,0,0,1,.16.3c-.23.53-.58.37-.86.13-.55-.46-1.07-1-1.58-1.47A33.83,33.83,0,0,0,84.1,2.48c-.39-.11-.89-.12-1.09-.79C84,1.21,85,2.19,86.1,1.76Z"/><path class="cls-1" d="M48.72,12.2a58.53,58.53,0,0,0-4.44,6.18c-1.26,2.14-2,4.53-3.16,6.73-.77-.36-.56-.75-.44-1.12a34.23,34.23,0,0,1,3.51-7.32,27.9,27.9,0,0,1,3.07-4.12C47.59,12.19,47.88,11.68,48.72,12.2Z"/><path class="cls-1" d="M52,62.75c.67-.32,1.09.15,1.51.46a35.46,35.46,0,0,0,6.81,4c1.36.57,2.76,1,4.14,1.54.36.13.82.1,1,.58-.14.37-.44.32-.7.24-1-.31-2.11,0-2.79-1.06a.81.81,0,0,0-.66-.22A4.57,4.57,0,0,1,59,67.64a33.91,33.91,0,0,1-6.41-3.93C52.31,63.48,51.92,63.33,52,62.75Z"/><path class="cls-1" d="M46,55.59a50.18,50.18,0,0,0,5.35,5.94c-.47.67-.86.37-1.23.07a22.89,22.89,0,0,1-2.84-2.9,17.81,17.81,0,0,1-1.4-1.77C45.67,56.59,45.36,56.21,46,55.59Z"/><path class="cls-1" d="M107.37,48.61A22.79,22.79,0,0,1,105,53.23c-.18.24-.48.28-.86-.07.71-1.47,1.44-3,2.21-4.49C106.5,48.42,106.78,48.28,107.37,48.61Z"/><path class="cls-1" d="M104.25,18.12l-2.55-3.68a1,1,0,0,1,1.38.3,1.63,1.63,0,0,1,.11.23c.57.94,1.57,1.71,1.49,2.94Z"/><path class="cls-1" d="M49,10.8a5.18,5.18,0,0,1,2.74-2.2c0,1.19-1,1.54-1.64,2.21C49.87,11.08,49.51,11.38,49,10.8Z"/><path class="cls-1" d="M40.44,26.23a1.41,1.41,0,0,1-.22,2l-.18.13C39.44,27.63,39.54,27,40.44,26.23Z"/><path class="cls-1" d="M103.16,55.45c-.23-.73,0-1,.77-1.07C104.1,55.09,103.92,55.44,103.16,55.45Z"/><path class="cls-1" d="M32.1,57.66,32,57.57c.16-.1.11,0,.12.1Z"/><path class="cls-1" d="M64.15,50.23c-.41.9-1.12.84-1.86.67-.31.57-.19,1.39-1,1.48-1.27-1.11-3-4.86-3.36-7.28.44-.67,1.49-.3,1.94-1.08-.66-.76-1.43,0-2.32-.23a19.12,19.12,0,0,1-.3-7.79c.57-.1.66.54,1.25.51.62-.32,1.54-.47,2-1.36-.46-.4-.72-.13-1,0a1.77,1.77,0,0,1-.92.37,1.76,1.76,0,0,1-.81-1.92,23.73,23.73,0,0,1,3.88-8.3c.06-.09.19-.14.33-.24a17.48,17.48,0,0,1,2.32,1.79c-.13.61-1,.28-1,1,0,.48.58.27.86.58a25,25,0,0,0-2.47,5.72c-.71-1-1.41-1-2.16-.45-.39.3-1.13.32-.91,1.13.77.23,1.14-.62,1.86-.54a1.89,1.89,0,0,1,.73,1.85,19.18,19.18,0,0,0-.11,5.71,2.29,2.29,0,0,1-.2,1.72c1.31,1.25,1,3.26,2.41,4.39.56-.32.28-.69.13-1a22.51,22.51,0,0,1-1.56-5.51,16.05,16.05,0,0,1,.27-5.94,19.38,19.38,0,0,1,6.36-10.6A18.58,18.58,0,0,1,71.16,23c.35-.21.72-.49,1.17-.23,0,.5-.41.52-.66.67-5.72,3.38-8.62,8.48-9.14,15a17.35,17.35,0,0,0,2.88,10.68,22.13,22.13,0,0,0,7.83,7.61,1.76,1.76,0,0,0,2.09,0,22.64,22.64,0,0,0,3.12-2.22A1.39,1.39,0,0,1,80,54.1c-.72.62-1.42,1.28-2.18,1.86s-1.72,1.15-2.6,1.71a1.47,1.47,0,0,1-1.76,0,24.71,24.71,0,0,1-8.68-8.26c-.23-.35-.34-.83-.82-1C63.57,48.82,63.57,48.82,64.15,50.23Z"/><path class="cls-1" d="M86.32,40.31c-.36-.33-.22-.67-.22-1a18.31,18.31,0,0,0-4.49-12A17.49,17.49,0,0,0,68.1,21.14a24.92,24.92,0,0,0-11,2.54,2.52,2.52,0,0,0-1.74,3c.18,1.1.22,2.22.43,3.32a1.38,1.38,0,0,1-.37,1.44A22.54,22.54,0,0,1,54.75,25a1.31,1.31,0,0,1,.84-1.09l2-1.08c.24-.13.52-.24.55-.59-.13-.54-.73-.16-1.08-.6-.4-.95.94-1.69.68-2.76-.86-.15-.83.78-1.33,1a2.75,2.75,0,0,1,1.78-2.5,27.16,27.16,0,0,1,4.25-1.22,2.07,2.07,0,0,1,1.47,0,7.81,7.81,0,0,1,.35,3.43c-1,.77-2.4.33-3.35,1.28.57.61,1.12.29,1.62.17a19.86,19.86,0,0,1,10.57.2A18.47,18.47,0,0,1,84.79,31a17.92,17.92,0,0,1,2,8C86.77,39.47,86.86,40,86.32,40.31Z"/><path class="cls-1" d="M98.59,25.61c-.47.16-.69-.57-1.15-.17s.32.66.19,1.06-1-.05-1,.62.73.23,1,.58-.26.49-.14.78.6.09,1,.38a23.85,23.85,0,0,1-1.76,7,28.62,28.62,0,0,1-3.46-1.49,41,41,0,0,0,1.46-6.48c.45-.57,1.21-.18,1.27-.88-.06-.32-.3-.38-.54-.42a1,1,0,0,1-.65-.36c.09-1.39-.05-2.85-1.71-3.43a3.19,3.19,0,0,1,.54-1.69c.44-1.07.25-1.36-.91-1.36a1,1,0,0,1-.74-.16c-.12-.56.23-.91.66-1.29a13.8,13.8,0,0,1,2.68,1.3c.36.24.73.47,1.12.68a3.34,3.34,0,0,1,2.17,3.81A9.64,9.64,0,0,0,98.59,25.61Z"/><path class="cls-1" d="M91.28,31.37c-.36-.12-.33-.4-.41-.61A25,25,0,0,0,80.72,18.38a23.77,23.77,0,0,0-9.62-3.33,28.18,28.18,0,0,0-9.86.52,29,29,0,0,0-11.14,5.2,1.83,1.83,0,0,0-.84,1.38c-.23,4.53-.1,9,1.51,13.34a28.93,28.93,0,0,0,3.5,6.93,1.77,1.77,0,0,1,.49,1.27c-.39.07-.46-.21-.58-.39A29.54,29.54,0,0,1,49,31.43a40.88,40.88,0,0,1-.47-9.18,2.49,2.49,0,0,1,1.14-2.12A32.88,32.88,0,0,1,60.94,15a27.36,27.36,0,0,1,10.47-.59,24.65,24.65,0,0,1,9.69,3.37,25.3,25.3,0,0,1,10,11.84C91.37,30.15,91.75,30.75,91.28,31.37Z"/><path class="cls-1" d="M69.33,52.24c1.22.12,2.28.25,3.35.32a23.9,23.9,0,0,0,18.08-6.19,24.61,24.61,0,0,0,6.24-9,31.12,31.12,0,0,0,2.15-7.58,39.47,39.47,0,0,0,.19-7.29,2.63,2.63,0,0,0-1.24-2.06,30.13,30.13,0,0,0-13.33-5.32,24.11,24.11,0,0,0-6-.19,2.49,2.49,0,0,1-2.08-.44,19.92,19.92,0,0,1,4.43-.34A31.34,31.34,0,0,1,98.74,20,2.65,2.65,0,0,1,100,22.17a36.19,36.19,0,0,1-.42,9A28.42,28.42,0,0,1,95,42.52a24.65,24.65,0,0,1-14.85,10.2,26.48,26.48,0,0,1-9.39.42A1.63,1.63,0,0,1,69.33,52.24Z"/><path class="cls-1" d="M91.3,48.36a15.92,15.92,0,0,1-1.9,3.94A29.83,29.83,0,0,1,76.88,63.8c-2.79,1.42-2.8,1.34-5.6-.17a32.57,32.57,0,0,1-9.18-7.24A26.22,26.22,0,0,1,55.48,40,22.86,22.86,0,0,1,58.1,28.42a24.93,24.93,0,0,1,2.69-4.53,2.42,2.42,0,0,1,1.42-1A1.64,1.64,0,0,1,61.64,24a23.61,23.61,0,0,0-5.11,19.19,26.16,26.16,0,0,0,8.21,15A31.5,31.5,0,0,0,73.55,64a1.59,1.59,0,0,0,1.38.06,29.51,29.51,0,0,0,15-14.17C90.19,49.26,90.42,48.62,91.3,48.36Z"/><path class="cls-1" d="M53.42,52.87a1.32,1.32,0,0,1,1.16,1.23c.45,2.6,2.3,4,4.39,5.19a3.87,3.87,0,0,0,.67.26c.4.13.81.17,1.08-.22a.92.92,0,0,0-.11-1.11c-.36-.49-.73-.95-1.13-1.4A1.38,1.38,0,0,1,59.3,55c.46-.11.61.23.81.46a46.38,46.38,0,0,0,5.15,5.15,29.88,29.88,0,0,0,5.46,3.65c.21.1.45.19.51.46s-.28.25-.49.22a29.65,29.65,0,0,1-15.21-6.46,6.52,6.52,0,0,1-2.37-4.9A.69.69,0,0,1,53.42,52.87Z"/><path class="cls-1" d="M93.22,51.57c.43,1-.09,1.49-.67,2a31.09,31.09,0,0,0-3.87,3.74l-.8,1a.71.71,0,0,0-.08,1,.89.89,0,0,0,1,.24,7.5,7.5,0,0,0,2-1,2.53,2.53,0,0,1,2.25-.48c-.93,2.51-11.85,7.23-15.73,6.79-.08-.4.27-.43.49-.55a33.21,33.21,0,0,0,9.8-8A23.11,23.11,0,0,1,92.25,52,2,2,0,0,1,93.22,51.57Z"/><path class="cls-1" d="M50.81,44a1.52,1.52,0,0,1-1.2-1.48,26.09,26.09,0,0,0-1.51-5.77c-.23-.61-.4-1.5-1.28-1.31s-.74,1-.78,1.7a5.8,5.8,0,0,0,.06,1.44,2.39,2.39,0,0,1-.74,2.05c-1.42-3.26-.52-13.24,2-17,.27.05.26.26.25.46a33.62,33.62,0,0,0,2.25,13.49A18.71,18.71,0,0,1,51,43.06,1.55,1.55,0,0,1,50.81,44Z"/><path class="cls-1" d="M77.54,57.23A1.43,1.43,0,0,1,78.19,59a1.29,1.29,0,0,0,.45,1.77l.25.11a25.94,25.94,0,0,1-4.28,2.38.85.85,0,0,1-.7,0A20.73,20.73,0,0,1,69.72,61a1.57,1.57,0,0,1-.32-.41,19.58,19.58,0,0,1,2.06-2.82,4.23,4.23,0,0,1,1.83.83,2,2,0,0,0,2,0A12.2,12.2,0,0,1,77.54,57.23Z"/><path class="cls-1" d="M64.1,43.31a18.09,18.09,0,0,0,5.76,2.48c7.07,1.65,14.07-.39,18.74-6.38A21.64,21.64,0,0,0,93.1,25.8a1.74,1.74,0,0,0-1-1.71c-1.17-.6-2.38-1.14-3.6-1.62-.48-.19-1-.33-1.19-.89.29-.32.53,0,.76,0a26.16,26.16,0,0,1,4.68,2.1,1.69,1.69,0,0,1,1,1.6A22.21,22.21,0,0,1,87.16,42a17.66,17.66,0,0,1-11,5A18.86,18.86,0,0,1,65.1,44.67,1.43,1.43,0,0,1,64.1,43.31Z"/><path class="cls-1" d="M84.25,22.38l-2.61,2.56c-1.16-.52-1.94-1.66-3.07-2.31s-2.31-1.21-3.47-1.77c.1-.68.62-.7,1-.88,1-.5,1-.69.53-1.66-.14-.27-.44-.49-.32-.86C77.8,17.29,82.85,20.38,84.25,22.38Z"/><path class="cls-1" d="M86.37,32.33a24.39,24.39,0,0,0-4.09-6.51,2,2,0,0,1,1-1.14c.46.13.28.72.81.8.88-.41-.17-1.21.28-1.77.44,0,.23.68.55.69.52.17.52-.36.92-.49a21.79,21.79,0,0,1,4.08,6.94A14.5,14.5,0,0,1,86.37,32.33Z"/><path class="cls-1" d="M75.38,16.93a20.79,20.79,0,0,1-1.28,3.43,2.55,2.55,0,0,1-1.52-.19,17.59,17.59,0,0,0-4.14-.52c-1.3,0-1.44-.17-1.58-1.41l-.15-1.31c0-.4-.4-.67-.59-1.17A20.44,20.44,0,0,1,75.38,16.93Z"/><path class="cls-1" d="M56.27,22.16a1.65,1.65,0,0,1-.79.71A2.51,2.51,0,0,0,54,25.56c.07,1-.15,1.17-1.06,1.2a10.13,10.13,0,0,1-2.8.12,13.91,13.91,0,0,1-.1-3.53,2.84,2.84,0,0,1,1.7-2.76A22.23,22.23,0,0,1,54.61,19,19.82,19.82,0,0,1,56.27,22.16Z"/><path class="cls-1" d="M86.1,54.48a23.81,23.81,0,0,1-5.45,5.2,31.92,31.92,0,0,1-2.32-3.12c2-1.25,3.09-3.47,5.51-4,1.1-.24,1.07-.33,1.68.69.16.27.33.54.48.82A2.73,2.73,0,0,1,86.1,54.48Z"/><path class="cls-1" d="M64.87,51.12A42.74,42.74,0,0,0,69.41,56a23.72,23.72,0,0,1-2.31,3,23.76,23.76,0,0,1-5.32-5.64c.52-.51.81.4,1.28-.17C63.1,52.26,63.77,51.64,64.87,51.12Z"/><path class="cls-1" d="M91.46,44.35A16.5,16.5,0,0,1,89,41.45a25.86,25.86,0,0,0,3.26-5.06c.64,0,.5.72.87.75.51.26.82-.13,1.28-.18.34.41.52,1.2,1.62.72A22.66,22.66,0,0,1,91.46,44.35Z"/><path class="cls-1" d="M85.9,44.16A18.74,18.74,0,0,1,88.47,47a18.25,18.25,0,0,1-6.63,3.6,15.21,15.21,0,0,1-1-3.74A31.5,31.5,0,0,0,85.9,44.16Z"/><path class="cls-1" d="M91.37,17.85a4.46,4.46,0,0,1-.49,1.55c-.31.91-.09,1.24.89,1.3a.93.93,0,0,1,.82.22c0,.49-.34.81-.61,1.22-1.13-.22-2-.83-3.07-1.12a21.71,21.71,0,0,0-2.18-.65A4.28,4.28,0,0,1,84.53,19a1,1,0,0,1-.11-1.41l0,0a2.67,2.67,0,0,1,2.08-1.25A12.46,12.46,0,0,1,91.37,17.85Z"/><path class="cls-1" d="M70.81,51.56a15.78,15.78,0,0,1,.54-3.74h5.5a17.11,17.11,0,0,1,1,3.06c.15.4-.14.71-.55.75A26.59,26.59,0,0,1,70.81,51.56Z"/><path class="cls-1" d="M54.57,35.54c-.83.25-1.87-.52-2.48,1a22.44,22.44,0,0,1-1.48-5c-.09-.43.23-.67.64-.71l2.92-.28A5.47,5.47,0,0,1,54.57,35.54Z"/><path class="cls-1" d="M50.49,47.63c-.52.88-.87,1.78-1.89,2.17-.14-.09-.32-.15-.39-.27C46.91,47.18,45.79,44.78,46,42a2.85,2.85,0,0,1,1.66-2.6c.63.33,1,.83.46,1.41-1.28,1.46-.73,3-.32,4.51.22.81.61,1.45,1.61,1.5C49.83,46.83,50.16,47.18,50.49,47.63Z"/><path class="cls-1" d="M96.76,50.15a2.86,2.86,0,0,1,2.83.8c-1.43,2.44-3,4.61-5.61,5.87a3.9,3.9,0,0,1-2.1.35,1.11,1.11,0,0,1-1.09-.82,1.09,1.09,0,0,1,1.33-.78l.17.06a2,2,0,0,0,1.81-.36,12,12,0,0,0,2.21-2,1.31,1.31,0,0,0,.25-1.53A1.47,1.47,0,0,1,96.76,50.15Z"/><path class="cls-1" d="M74.86,6.29A3.34,3.34,0,0,1,77,6.12a12.27,12.27,0,0,1,5.77,1.72A3.69,3.69,0,0,1,84.3,9.76c.15.46.14.93-.38,1.1a.84.84,0,0,1-1.08-.44s0,0,0-.05c-.61-2-2.42-2.2-4-2.65a1.7,1.7,0,0,0-1.73.63c-.88.89-1.47.77-1.95-.38A2.08,2.08,0,0,1,74.86,6.29Z"/><path class="cls-1" d="M65.47,26.61a15.36,15.36,0,0,1-2.26-1.73c.09-.59,1-.36.91-1.07-.1-.46-.62-.09-.89-.34a1.27,1.27,0,0,1,.13-.32,1.57,1.57,0,0,1,.83-.67,13.7,13.7,0,0,1,5.91-.09A50,50,0,0,0,65.47,26.61Z"/><path class="cls-1" d="M100.15,49.84A3.58,3.58,0,0,1,98.24,48a7,7,0,0,1-.8-3,2.51,2.51,0,0,1,1.32-2.29c.32,1.36-.45,2.93.94,3.93,1-.42,1.26-1.68,2.55-2A13.81,13.81,0,0,1,100.15,49.84Z"/><path class="cls-1" d="M55.74,53c-.43.24-.65-.15-.92-.33a4.77,4.77,0,0,0-2-.83c-.82-.1-1.14.3-.81,1a4.59,4.59,0,0,1,.41,2.45A17.29,17.29,0,0,1,49,51c1.15-1.25,2.52-1,3.8-.68C54.92,50.77,55.61,51.49,55.74,53Z"/><path class="cls-1" d="M68.18,6.77a12.47,12.47,0,0,1,5.46-.59,2.94,2.94,0,0,1-.54,2.43,6.41,6.41,0,0,1-2.29,2.25,2.41,2.41,0,0,1-2.41,0c.16-.58.68-.59,1-.81A5.71,5.71,0,0,0,70.85,9c.58-.7.43-1.17-.47-1.3A4,4,0,0,1,68.18,6.77Z"/><path class="cls-1" d="M68.49,51.22c-1.9-1.41-2.72-3.43-3.57-5.48a29,29,0,0,0,5.31,1.75,6,6,0,0,1-.31,2.93c-.63.14-.8-.72-1.39-.41C68.1,50.35,68.81,50.7,68.49,51.22Z"/><path class="cls-1" d="M82.47,35.05a1.25,1.25,0,0,1,0,1.16l-4.83,2.12A1.82,1.82,0,0,1,77.45,37c.75-.68,1.86-.67,2.69-1.37-.8-.74-1.84-.89-2.62-1.49a2,2,0,0,1,0-1.39C79.33,33.3,80.85,34.39,82.47,35.05Z"/><path class="cls-1" d="M72.1,32.82c.29,1.14.25,1.26-.64,1.7-.63.31-1.28.6-2,.94.46.7,1.19.68,1.77.94,1,.45,1.06.56.92,1.72-.27.24-.53.06-.77,0L67.77,36.5c-.35-.16-.75-.32-.75-.83s.29-.69.67-.88l3.73-1.87C71.63,32.82,71.85,32.68,72.1,32.82Z"/><path class="cls-1" d="M74.37,39.12A2.93,2.93,0,0,1,72.71,39c.73-2.43,1.77-4.73,2.57-7.09a2.7,2.7,0,0,1,1.71-.1C76.31,34.36,75.23,36.68,74.37,39.12Z"/><path class="cls-1" d="M57.26,56.9a1.18,1.18,0,0,1-1-.83c1.53-1.89.35-3.57-.57-5.22a3.16,3.16,0,0,1-.57-2.36c.65-.15.89.34,1.16.68a10.9,10.9,0,0,1,2.1,4.9A2.69,2.69,0,0,1,57.26,56.9Z"/><path class="cls-1" d="M65.58,9.81c.46,1.79,2,1.84,3.4,2.08a10.05,10.05,0,0,0,1.9,0,1.88,1.88,0,0,1,1.84.78c-.07.28-.3.36-.54.41a9.27,9.27,0,0,1-6.59-.88,3.2,3.2,0,0,1-.85-.65c-.32-.34-.68-.74-.46-1.26S64.93,9.76,65.58,9.81Z"/><path class="cls-1" d="M94.88,45.8A2.33,2.33,0,0,1,95.23,44a8.22,8.22,0,0,1,4.15-4.43,2,2,0,0,1,1.28-.2c.47.11.79.39.7.93s-.37.74-.84.63a2,2,0,0,0-2,.82,8.33,8.33,0,0,0-1.91,2.58A2.86,2.86,0,0,1,94.88,45.8Z"/><path class="cls-1" d="M88.73,33.07A1.4,1.4,0,0,0,90.66,33a13,13,0,0,1-2.81,5.69,3.66,3.66,0,0,1-.37-1.62,10.65,10.65,0,0,0-.62-2.9c-.17-.43-.25-.82.22-1.1.54.28-.15.8.36,1.08C88.18,34.27,88,33.28,88.73,33.07Z"/><path class="cls-1" d="M72,11.16c.52-.83,1-1,1.71-.63a12.32,12.32,0,0,0,4.14,1.41A3.1,3.1,0,0,1,80,13.11C77,13.75,74.51,12.64,72,11.16Z"/><path class="cls-1" d="M54,49.65c-.59.11-1.14-.14-1.13-.72.06-2.23-1-4.24-1.09-6.44a.8.8,0,0,1,.13-.32C53.54,43,54.76,47.32,54,49.65Z"/><path class="cls-1" d="M96.43,45.91c.58.52.69,1.12.12,1.45-1.81,1.06-3,2.8-4.69,4-.24.17-.45.49-1,.22C91.91,48.87,94,47.26,96.43,45.91Z"/><path class="cls-1" d="M90.24,44.57c-.82.08-1.07.72-1.42,1.22a5.94,5.94,0,0,1-2-2.25,3.91,3.91,0,0,1,1.43-1.31A6.91,6.91,0,0,1,90.24,44.57Z"/><path class="cls-1" d="M48.37,43.3a32.79,32.79,0,0,0,3,2.09c.5.39.53.75.35,1.58C49.66,46.49,48.21,45.05,48.37,43.3Z"/><path class="cls-1" d="M95.55,49.2a13.71,13.71,0,0,1-.13,3.73A1.41,1.41,0,0,1,94.32,54a.46.46,0,0,1-.26-.56,10,10,0,0,0,.16-2.38C94.2,50.25,94.59,49.71,95.55,49.2Z"/><path class="cls-1" d="M75.63,10.19c.94-.52,1.8-1.07,2.73-1.48a1.85,1.85,0,0,1,2.07.51c-1.19.59-2.25,1.18-3.37,1.64a1.07,1.07,0,0,1-1.4-.58Z"/><path class="cls-1" d="M79.44,49.48C78.12,49.15,78,49,78,47.68a3,3,0,0,1,1.71-.47C80.45,48.34,80.43,48.5,79.44,49.48Z"/><path class="cls-1" d="M83.19,18a21.4,21.4,0,0,0-3.39-2C81.61,15.34,83.29,16.31,83.19,18Z"/><path class="cls-1" d="M65.1,16.49a2.51,2.51,0,0,1,.74,3.05C65.23,19.24,65,18.16,65.1,16.49Z"/><path class="cls-1" d="M88.76,50.31c-.74,1.64-1,1.75-2.16,1.19A3.7,3.7,0,0,1,88.76,50.31Z"/><path class="cls-1" d="M53,38.59a2.42,2.42,0,0,1,1.22-.2,3.53,3.53,0,0,1,0,2.18A9.18,9.18,0,0,1,53,38.59Z"/><path class="cls-1" d="M70.39,56.53c.47,1-.25,1.31-.76,1.9C69.26,57.47,69.7,57.06,70.39,56.53Z"/><path class="cls-1" d="M52.71,37.16c.28-.67.6-.94,1.15-.62a.42.42,0,0,1,.12.57l0,0C53.56,37.68,53.17,37.51,52.71,37.16Z"/><path class="cls-1" d="M50.4,29.48a.76.76,0,0,1-.16-1c.47-.16.67.11.86.39C51,29.29,50.78,29.5,50.4,29.48Z"/><path class="cls-1" d="M53.19,28.76a.62.62,0,0,1,.55-.68h.08a.79.79,0,0,1,.26.86C53.71,29.22,53.43,29.1,53.19,28.76Z"/><path class="cls-1" d="M68.65,58.74c.49.6.3.94-.3,1.24C67.67,59.37,68.2,59.11,68.65,58.74Z"/><path class="cls-1" d="M51.7,29.77c.37-.49.69-.41,1.15-.15C52.43,30,52.1,30.05,51.7,29.77Z"/><path class="cls-1" d="M52.59,27.72c-.33.53-.62.56-1.06.27C51.79,27.59,52.1,27.62,52.59,27.72Z"/><path class="cls-1" d="M86.34,52.73c.37-.18.62-.17.73.17a.33.33,0,0,1-.22.41l-.07,0C86.42,53.35,86.33,53.1,86.34,52.73Z"/><path class="cls-1" d="M93.61,35.71s.12.1.12.15-.09.19-.2.14a.21.21,0,0,1-.07-.18Z"/><path class="cls-1" d="M95.57,36.66l-.1-.14.08-.05.11.13Z"/><path class="cls-1" d="M89.47,32.11c.07,0,.16,0,.18.09a.15.15,0,0,1-.07.19.11.11,0,0,1-.16,0,.11.11,0,0,1,0-.06A.68.68,0,0,1,89.47,32.11Z"/><path class="cls-1" d="M79.81,51v.07h-.08V51Z"/><path class="cls-1" d="M75.65,18.92a.14.14,0,0,1,.09,0c.08,0,.09.08,0,.13h-.09A.56.56,0,0,0,75.65,18.92Z"/></g></g></svg>