<svg xmlns="http://www.w3.org/2000/svg" viewBox="0 0 160.14 160"><defs><style>.cls-1{fill:#43b5a0;}.cls-2{fill:#f7f9f9;}.cls-3{fill:#fcfcfc;}</style></defs><g id="Capa_2" data-name="Capa 2"><g id="Capa_1-2" data-name="Capa 1"><rect class="cls-1" x="0.14" width="160" height="160" rx="4.31"/><path class="cls-2" d="M31.37,91.12c.55,0,.75.46,1,.77a64.09,64.09,0,0,0,16.94,13.48,51.31,51.31,0,0,0,39.07,4.18,50.71,50.71,0,0,0,31.29-26,49.48,49.48,0,0,0,5.61-22,45.26,45.26,0,0,0-1.42-13.11c-.41-1.51-.57-3.08-1-4.6a47.16,47.16,0,0,0-4.41-10.09.89.89,0,0,1-.15-.79,9.89,9.89,0,0,1,2.08,2.52c.67.88,1.33,1.77,2,2.62.55-.11.53-.46.55-.76.49-8.2,4.58-14.51,10.46-19.88a53,53,0,0,1,9.3-6.72,2,2,0,0,0,.89-.87c-.19-.3-.46-.18-.71-.13-8.92,2-17.93,3.56-26.86,5.5a21.15,21.15,0,0,1-3,.62,8.92,8.92,0,0,0-6,3.25c-1.84,2-3.87,3.89-5.8,5.85-.93-.56-1.52-1.38-2.36-2a11.25,11.25,0,0,1,2.28-2.49c2.14-2.18,4.34-4.3,6.49-6.49a2.48,2.48,0,0,1,1.39-.73c3.84-.71,7.66-1.56,11.48-2.4,8.1-1.74,16.25-3.21,24.3-4.9,2-.37,4-.74,5.95-1.22,2.71-.7,5.44-1.19,8.19-1.72a2.92,2.92,0,0,1,1.21-.13c-.09.46-.45.61-.79.82l-13.92,8.72c-1.57,1-3.08,1.95-4.7,2.88a28.79,28.79,0,0,0-7.06,6.6,33.45,33.45,0,0,0-6.81,11.4A15.53,15.53,0,0,0,126,40c.62,5.62,1,11.27,1.64,16.88.21,2,.46,3.94.61,5.91a24.94,24.94,0,0,1-.55,6.15A55.08,55.08,0,0,1,101.39,107a42.2,42.2,0,0,1-15.66,5.9c-2.89.41-5.74,1.21-8.65,1.48a47,47,0,0,1-12.07-.6,53.64,53.64,0,0,1-25.2-11.21,17,17,0,0,0-9.59-3.77,10.47,10.47,0,0,0-8,2.41c-5.93,5.14-11.86,10.21-17.8,15.28C2.94,117.7,1.52,119,.07,120.25c-.18-.34,0-.49.15-.65Q7.9,109.13,15.65,98.71L27.13,83.19a5.9,5.9,0,0,1,1.56-1.43c2.8-1.87,5.57-3.78,8.36-5.68a1.1,1.1,0,0,0,.5-.6C37,74,36.3,72.52,35.76,71a40.66,40.66,0,0,1-2-11.08,2,2,0,0,1,.42-1.52c.68.08.63.61.67,1.09.09,1.12.15,2.26.3,3.38A38.07,38.07,0,0,0,43.9,83.11a2.81,2.81,0,0,1,.89,2.38,13.36,13.36,0,0,1-3-3.29c-.9-1.1-1.67-2.32-2.52-3.52a28.66,28.66,0,0,0-3.9,2.54c-1.49.93-2.92,1.93-4.39,2.9a8.53,8.53,0,0,0-2.19,2.13c-2.94,4-5.91,8-8.86,12.08-.2.28-.55.49-.45,1.11,1.27-.44,2-1.61,3.11-2.15A18.47,18.47,0,0,1,26.24,96a14.5,14.5,0,0,1,3.89-.21c1.3.06,2.56.39,4,.54a17.33,17.33,0,0,0-1.5-2.78c-.42-.83-1.21-1.48-1.24-2.49Z"/><path class="cls-2" d="M67.3,23.5A35.09,35.09,0,1,1,39.09,64.33c0-.2-.07-.39-.1-.59A35.14,35.14,0,0,1,67.3,23.5Zm36,18.38a1.71,1.71,0,0,0-.3-1.67A37.36,37.36,0,0,0,95.89,32a34.49,34.49,0,0,0-10-5.87c-.38-.13-.8-.5-1.14,0,.12.65.71.66,1.14.83a34,34,0,0,1,10.36,6.47c.21.17.58.35.28.73l-.14,0a6.29,6.29,0,0,1-.64-.21,37.63,37.63,0,0,0-13.18-2.57,31,31,0,0,1-8-.81c-.38-.1-.84-.08-.91-.68a1.6,1.6,0,0,1,1.82-.72l2.27.37a18.48,18.48,0,0,0,5,.23c.6-.11,1.39-.05,1.49-.85s-.68-1-1.21-1.26A9.86,9.86,0,0,0,81,27a2.51,2.51,0,0,1-1.85-1.74c1.34-.11,2.47.59,3.88.43-.54-1.05-1.41-1-2.1-1.15a35,35,0,0,0-14.58,0,36.36,36.36,0,0,0-10.25,4.07c-.39.23-.9.43-.68,1.27a12.65,12.65,0,0,1,3.76-1.45,8,8,0,0,1,4.07.63,1.87,1.87,0,0,1-2.26,1c-3.18-.46-5.38,1.26-7.39,3.39a1,1,0,0,0-.27,1c.3.49.79.47,1.3.37a8.74,8.74,0,0,0,2.06-.62,1.47,1.47,0,0,1,2,.63c-2.57,1.55-5.44,2.26-7.92,3.76a71.29,71.29,0,0,0-7.07,5.15c0-1.57,1.55-2.58,1.62-4.09-.73-.08-.84.39-1,.7a32,32,0,0,0-2.14,4.21,34.75,34.75,0,0,0-2.37,18.77A30.69,30.69,0,0,0,42.09,71a33.35,33.35,0,0,0,18.56,18.6,34.2,34.2,0,0,0,37.52-7.74,33.57,33.57,0,0,0,6.31-9.28A35.12,35.12,0,0,0,107,65.93a34.36,34.36,0,0,0-.53-17.86,29,29,0,0,0-1.84-4.77c-.16-.33-.28-.71-.79-.51-.41.52.06.94.25,1.34a36.51,36.51,0,0,1,3,12,8,8,0,0,1-2.86,7.18.72.72,0,0,1-.76-.7.56.56,0,0,1,.06-.31,2.25,2.25,0,0,1,.49-1.1c2-2.38,1.73-5.09,1.08-7.83-.12-.63-.43-1.2-1.27-1.15-.93.65-.91,1.7-1.07,2.66a1.86,1.86,0,0,1-1.64,1.76c0-3,.77-5.87.68-8.76a56.61,56.61,0,0,0-1-8.81C102.1,39.81,102.06,41.37,103.28,41.88Z"/><path class="cls-2" d="M36.44,85.59A2.13,2.13,0,0,1,38.54,84c2.33,2.55,4.41,5.3,7.05,7.52A73.42,73.42,0,0,0,52,96a42.67,42.67,0,0,0,5.52,2.9A37.49,37.49,0,0,0,62,100.53a35.46,35.46,0,0,1,3.62,1,1.24,1.24,0,0,0,.53.12,21,21,0,0,1,5.06.53c3.77.45,7.43-.22,11.08-.77a46.16,46.16,0,0,0,7.65-2,22.44,22.44,0,0,0,4-2,40.74,40.74,0,0,0,3.9-2.35c1.51-1.1,3-2.2,4.47-3.42A29,29,0,0,0,106.81,87a33.29,33.29,0,0,0,2.26-3.14c1-1.74,2.28-3.31,3.14-5.16a47.43,47.43,0,0,0,3.31-8.93,54,54,0,0,0,1.31-8.47c.86-10.25-1.27-19.76-7.48-28.14-.17-.24-.47-.42-.4-.86.52,0,.76.34,1,.71a47.74,47.74,0,0,1,6.33,12,44,44,0,0,1,2.26,8.44,53.72,53.72,0,0,1,.41,9.4,42.17,42.17,0,0,1-2.52,12.21,55.74,55.74,0,0,1-3.56,7.73,42.5,42.5,0,0,1-5.6,7.59,49.25,49.25,0,0,1-5.33,5,45,45,0,0,1-7.19,4.83,19.05,19.05,0,0,1-5.76,2.5c-2.39.44-4.65,1.42-7.06,1.81a52.18,52.18,0,0,1-7.79.88,26.21,26.21,0,0,1-5.45-.51,29.57,29.57,0,0,1-3.95-.75,20.82,20.82,0,0,1-3.54-1,20.53,20.53,0,0,0-2.42-.7c-2.51-1.16-5.08-2.24-7.55-3.65C50,98,48.6,97.23,47.33,96.43a22.54,22.54,0,0,1-3.48-2.92c-1.24-1.17-2.57-2.23-3.72-3.47A54.08,54.08,0,0,1,36.44,85.59Z"/><path class="cls-2" d="M72.72,97.07q24.47-.6,36-22c.87.41.59.91.37,1.38a28.44,28.44,0,0,1-2.33,3.95A38.31,38.31,0,0,1,99,88.91a3.85,3.85,0,0,1-1.37.83A1.55,1.55,0,0,0,96.19,91c-.06.26-.51.47-.82.66A49.14,49.14,0,0,1,77,98a24.25,24.25,0,0,1-3.51.14C72.83,98.15,72.82,98.1,72.72,97.07Z"/><path class="cls-2" d="M44.4,32.2c-.59-.87-.23-1.23.06-1.54a29,29,0,0,1,4.4-4,3.41,3.41,0,0,1,1.06-.49c.25-.05.6-.11.7-.35,1.15-1.91,3.2-2.56,5-3.55,5.85-3.26,12.21-4.29,18.76-4.44.09,0,.17.05.26.06.27.33.22.66-.06,1.09a45.73,45.73,0,0,0-11.11,1.42A40.24,40.24,0,0,0,53.08,25,44,44,0,0,0,44.4,32.2Z"/><path class="cls-2" d="M112.75,63.45c-.57-.31-.39-.8-.35-1.22A40.56,40.56,0,0,0,110,43.78a38.36,38.36,0,0,0-4.63-8.51c-.25-.39-.75-.7-.5-1.33.6-.3.89.16,1.24.51a25.93,25.93,0,0,1,2.8,4.44,39.71,39.71,0,0,1,4.82,20.78c0,.9-.12,1.79-.23,2.67C113.4,62.8,113.39,63.38,112.75,63.45Z"/><path class="cls-2" d="M79.84,18.12c.39.68.8,1.12,1.46,1a7.21,7.21,0,0,1,3.53.5,39.84,39.84,0,0,1,13.79,7.16,1.76,1.76,0,0,1,.24.3c-.15.63-.57.53-.93.32-.7-.4-1.39-.89-2.05-1.31a38.12,38.12,0,0,0-18.11-6.74c-.45,0-1,.05-1.37-.65C77.45,17.94,78.71,18.83,79.84,18.12Z"/><path class="cls-2" d="M40.56,37.33a65.23,65.23,0,0,0-3.66,7.75c-1,2.63-1.29,5.43-2.13,8.11-.92-.25-.77-.72-.71-1.16a39.17,39.17,0,0,1,2.39-8.82A32.07,32.07,0,0,1,39,38C39.3,37.55,39.52,36.92,40.56,37.33Z"/><path class="cls-2" d="M54.53,92.66c.68-.49,1.24,0,1.77.21a40,40,0,0,0,8.36,3c1.62.35,3.26.54,4.9.86.43.07.93-.06,1.17.44-.08.44-.42.45-.72.41-1.17-.14-2.34.43-3.31-.6a.94.94,0,0,0-.78-.11,5.24,5.24,0,0,1-2.66-.25,39,39,0,0,1-7.9-3C55,93.41,54.55,93.33,54.53,92.66Z"/><path class="cls-2" d="M46.45,86a59.14,59.14,0,0,0,7.14,5.49c-.38.84-.87.58-1.34.33a27.05,27.05,0,0,1-3.74-2.63,22.41,22.41,0,0,1-1.92-1.68C46.25,87.13,45.83,86.78,46.45,86Z"/><path class="cls-2" d="M113,65.69a24.77,24.77,0,0,1-1.65,5.59c-.15.31-.47.41-1,.1.49-1.77,1-3.62,1.53-5.42C112,65.65,112.26,65.44,113,65.69Z"/><path class="cls-2" d="M103.29,32.54,99.72,29a1.11,1.11,0,0,1,1.59.05,1.19,1.19,0,0,1,.16.23c.83.92,2.09,1.57,2.26,2.95Z"/><path class="cls-2" d="M40.6,35.72a5.9,5.9,0,0,1,2.59-3c.24,1.32-.79,1.91-1.37,2.78C41.6,35.85,41.27,36.26,40.6,35.72Z"/><path class="cls-2" d="M34.25,54.57a1.59,1.59,0,0,1,.17,2.24l-.18.17C33.43,56.32,33.41,55.6,34.25,54.57Z"/><path class="cls-2" d="M109.71,74.13c-.4-.77-.2-1.11.64-1.35C110.68,73.53,110.55,74,109.71,74.13Z"/><path class="cls-2" d="M31.43,91.09,31.26,91c.15-.14.12,0,.15.09Z"/><path class="cls-2" d="M65.42,76.31c-.27,1.08-1.07,1.16-1.92,1.12-.23.7.07,1.58-.81,1.85-1.63-1-4.31-4.77-5.21-7.38.35-.83,1.59-.64,1.93-1.59-.88-.71-1.58.29-2.61.22A21.73,21.73,0,0,1,54.87,62c.61-.23.84.46,1.49.31.62-.49,1.61-.84,1.94-1.92-.59-.35-.83,0-1.11.2a1.93,1.93,0,0,1-.94.6,2,2,0,0,1-1.29-2,26.69,26.69,0,0,1,2.6-10c0-.11.18-.19.32-.33a18.87,18.87,0,0,1,2.93,1.51c0,.7-1.05.51-.9,1.31.1.53.7.18,1.07.47A28.55,28.55,0,0,0,59.41,59c-1-1-1.76-.82-2.48-.06-.37.41-1.19.59-.78,1.44.9.1,1.14-.92,2-1a2.11,2.11,0,0,1,1.19,1.9,22,22,0,0,0,1,6.35,2.54,2.54,0,0,1,.13,1.95C62.17,70.71,62.24,73,64,74c.55-.47.17-.82-.06-1.14a25.93,25.93,0,0,1-2.86-5.78,18.25,18.25,0,0,1-.91-6.64,21.89,21.89,0,0,1,4.88-13,20.68,20.68,0,0,1,2.55-2.66c.34-.3.69-.69,1.25-.49.1.55-.35.66-.6.87C62.63,50,60.46,56.25,61.22,63.58a19.56,19.56,0,0,0,5.37,11.24,25,25,0,0,0,10.23,6.84,2,2,0,0,0,2.32-.43,25.85,25.85,0,0,0,3-3.1,1.62,1.62,0,0,1,1.58-.76c-.67.84-1.31,1.71-2,2.51S80,81.5,79.15,82.3a1.65,1.65,0,0,1-2,.36,27.86,27.86,0,0,1-11.3-7.37c-.33-.35-.55-.86-1.11-1C64.49,74.87,64.49,74.87,65.42,76.31Z"/><path class="cls-2" d="M88,60.79c-.47-.29-.38-.7-.45-1.06a20.63,20.63,0,0,0-7.42-12.38c-4.74-3.86-10.2-5-16.23-4.08a28.13,28.13,0,0,0-11.67,5.07A2.83,2.83,0,0,0,50.87,52c.43,1.18.7,2.41,1.16,3.59a1.54,1.54,0,0,1-.12,1.67,25.94,25.94,0,0,1-2.07-7.06,1.51,1.51,0,0,1,.71-1.38l2-1.6c.24-.19.52-.37.49-.77-.26-.57-.85,0-1.32-.44-.64-1,.69-2.07.19-3.2-1,0-.76,1-1.27,1.38a3.1,3.1,0,0,1,1.46-3.13,30.38,30.38,0,0,1,4.46-2.22,2.39,2.39,0,0,1,1.63-.3,8.84,8.84,0,0,1,1.08,3.73c-1,1.05-2.59.85-3.45,2.1.76.56,1.31.09,1.83-.14a22.34,22.34,0,0,1,11.76-1.94,20.78,20.78,0,0,1,15,8.48,19.93,19.93,0,0,1,3.86,8.51C88.29,59.77,88.5,60.34,88,60.79Z"/><path class="cls-2" d="M98.55,42c-.49.27-.88-.49-1.31,0s.49.67.43,1.14-1.12.15-1,.89.85.11,1.17.45-.19.6,0,.89.69,0,1.19.22a26.63,26.63,0,0,1-.52,8.11,32.62,32.62,0,0,1-4.14-.94,46.72,46.72,0,0,0,.3-7.48c.38-.72,1.3-.44,1.22-1.23-.13-.34-.41-.36-.68-.36a1.17,1.17,0,0,1-.8-.26c-.18-1.56-.63-3.15-2.59-3.45a3.76,3.76,0,0,1,.25-2c.27-1.27,0-1.55-1.28-1.32a1.11,1.11,0,0,1-.86,0c-.24-.6.07-1.06.47-1.57a15.88,15.88,0,0,1,3.24.89,13.54,13.54,0,0,0,1.38.53,3.76,3.76,0,0,1,3.18,3.78A12.16,12.16,0,0,0,98.55,42Z"/><path class="cls-2" d="M91.63,49.87c-.42-.06-.45-.37-.58-.59A28.11,28.11,0,0,0,77.28,37.64a26.78,26.78,0,0,0-11.34-1.73A31.81,31.81,0,0,0,55.12,38.5a32.83,32.83,0,0,0-11.28,8,2.07,2.07,0,0,0-.65,1.7c.67,5.07,1.73,10,4.4,14.47a32.62,32.62,0,0,0,5.29,7,1.89,1.89,0,0,1,.8,1.3c-.41.16-.55-.13-.72-.31a33.46,33.46,0,0,1-8.17-12.09,46.55,46.55,0,0,1-2.4-10.08,2.83,2.83,0,0,1,.83-2.58,37.27,37.27,0,0,1,11.45-8,31.22,31.22,0,0,1,11.48-2.79A27.79,27.79,0,0,1,77.57,36.9,28.51,28.51,0,0,1,91.07,48C91.48,48.5,92,49.09,91.63,49.87Z"/><path class="cls-2" d="M71.57,77.48c1.38-.12,2.58-.19,3.78-.33A26.88,26.88,0,0,0,94.12,66.6a27.68,27.68,0,0,0,5.07-11.25,34.58,34.58,0,0,0,.84-8.84,43.62,43.62,0,0,0-1.28-8.11,2.92,2.92,0,0,0-1.8-2A33.85,33.85,0,0,0,81.1,33.2a27.49,27.49,0,0,0-6.69,1A2.78,2.78,0,0,1,72,34.15a23.1,23.1,0,0,1,4.83-1.28,35.36,35.36,0,0,1,20.72,2.88,3,3,0,0,1,1.87,2.14A40.2,40.2,0,0,1,100.82,48,32,32,0,0,1,98,61.47,27.74,27.74,0,0,1,83.66,75.8a30.06,30.06,0,0,1-10.32,2.39A1.84,1.84,0,0,1,71.57,77.48Z"/><path class="cls-2" d="M95.12,68.69a17.16,17.16,0,0,1-1.3,4.76A33.62,33.62,0,0,1,82.3,88.75c-2.8,2.14-2.83,2-6.24,1a36.8,36.8,0,0,1-11.65-6.14A29.64,29.64,0,0,1,53.73,66.75a25.92,25.92,0,0,1,.53-13.37,29.36,29.36,0,0,1,2.06-5.57,2.77,2.77,0,0,1,1.37-1.39,1.88,1.88,0,0,1-.4,1.37,26.58,26.58,0,0,0-1.74,22.3A29.38,29.38,0,0,0,67.71,85a35.45,35.45,0,0,0,10.94,4.62,1.79,1.79,0,0,0,1.54-.22c6.7-4.67,11.53-10.76,13.73-18.76A2.39,2.39,0,0,1,95.12,68.69Z"/><path class="cls-2" d="M54.07,81.43a1.48,1.48,0,0,1,1.54,1.13c1,2.78,3.37,4,5.93,4.85a5.24,5.24,0,0,0,.79.15c.47.06.93,0,1.15-.46a1,1,0,0,0-.35-1.21,17.44,17.44,0,0,0-1.53-1.32,1.56,1.56,0,0,1-.58-2c.49-.22.73.13,1,.34a53.64,53.64,0,0,0,6.75,4.66,33.52,33.52,0,0,0,6.8,2.92c.25.07.54.12.66.41s-.26.33-.5.34a33.25,33.25,0,0,1-18.17-4.05,7.37,7.37,0,0,1-3.63-4.94A.81.81,0,0,1,54.07,81.43Z"/><path class="cls-2" d="M97.91,71.86c.68,1,.2,1.67-.34,2.35a35.61,35.61,0,0,0-3.52,4.93c-.24.44-.47.88-.68,1.28a.79.79,0,0,0,.11,1.12,1,1,0,0,0,1.16.06,8.47,8.47,0,0,0,2-1.51,2.9,2.9,0,0,1,2.4-1c-.52,3-11.66,10.44-16,10.74-.17-.43.22-.53.44-.71a37.58,37.58,0,0,0,9.22-10.86,26.45,26.45,0,0,1,4.26-5.72A2.51,2.51,0,0,1,97.91,71.86Z"/><path class="cls-2" d="M49.37,72.14a1.73,1.73,0,0,1-1.63-1.4,29.06,29.06,0,0,0-2.85-6.08c-.38-.63-.75-1.58-1.69-1.19s-.61,1.26-.52,2A7.1,7.1,0,0,0,43,67.09a2.65,2.65,0,0,1-.4,2.42C40.4,66.19,39.36,55,41.39,50.27c.31,0,.34.24.37.46A38,38,0,0,0,47,65.22a20.79,20.79,0,0,1,2.37,5.84A1.73,1.73,0,0,1,49.37,72.14Z"/><path class="cls-2" d="M81.69,81.33a1.6,1.6,0,0,1,1.08,1.83A1.46,1.46,0,0,0,83.63,85a1.63,1.63,0,0,0,.3.07,29.14,29.14,0,0,1-4.25,3.51.94.94,0,0,1-.78.14,22.48,22.48,0,0,1-5.11-1.67,2,2,0,0,1-.44-.38,22.3,22.3,0,0,1,1.71-3.55,4.72,4.72,0,0,1,2.2.55,2.25,2.25,0,0,0,2.21-.41A13.79,13.79,0,0,1,81.69,81.33Z"/><path class="cls-2" d="M64,68.66a20.45,20.45,0,0,0,6.89,1.57c8.17.38,15.51-3.31,19.46-10.9a24.3,24.3,0,0,0,2.21-16,2,2,0,0,0-1.46-1.69,42.52,42.52,0,0,0-4.32-1.06c-.57-.11-1.17-.16-1.5-.74.26-.42.59-.11.84-.16a29.36,29.36,0,0,1,5.62,1.37,1.89,1.89,0,0,1,1.43,1.57,25,25,0,0,1-3.88,19.87,19.81,19.81,0,0,1-11.17,7.79A21.27,21.27,0,0,1,65.34,70,1.65,1.65,0,0,1,64,68.66Z"/><path class="cls-2" d="M82,41.35l-2.37,3.37c-1.39-.34-2.48-1.44-3.87-1.93s-2.81-.87-4.21-1.26c0-.77.55-.9.93-1.18,1-.75,1-1,.25-1.94-.21-.27-.59-.46-.53-.89C73.82,37,80,39.42,82,41.35Z"/><path class="cls-2" d="M86.39,51.94a27.62,27.62,0,0,0-5.87-6.38,2.26,2.26,0,0,1,.88-1.46c.53,0,.46.74,1.06.72.89-.64-.44-1.31,0-2,.49-.09.39.7.75.65.61.08.5-.51.92-.73A24.53,24.53,0,0,1,90,49.57,16.09,16.09,0,0,1,86.39,51.94Z"/><path class="cls-2" d="M71.06,37.12a21.32,21.32,0,0,1-.72,4.06,2.81,2.81,0,0,1-1.72.1,20.47,20.47,0,0,0-4.69.27c-1.44.27-1.63.11-2-1.24l-.43-1.42c-.09-.44-.58-.66-.9-1.17A23.17,23.17,0,0,1,71.06,37.12Z"/><path class="cls-2" d="M51,46.82a1.82,1.82,0,0,1-.73,1,2.85,2.85,0,0,0-1.15,3.29c.28,1.1.07,1.33-.93,1.55a10.78,10.78,0,0,1-3.08.7,16.55,16.55,0,0,1-.83-3.89A3.21,3.21,0,0,1,45.56,46a25.22,25.22,0,0,1,2.91-2.36A21.11,21.11,0,0,1,51,46.82Z"/><path class="cls-2" d="M90.61,76.54a26.74,26.74,0,0,1-5,6.87,37.74,37.74,0,0,1-3.21-3c2-1.8,2.71-4.48,5.29-5.56,1.17-.49,1.11-.58,2,.42.23.27.47.53.7.81A2.17,2.17,0,0,1,90.61,76.54Z"/><path class="cls-2" d="M66.4,77.15a48.8,48.8,0,0,0,6,4.48,25.23,25.23,0,0,1-1.94,3.85,26.85,26.85,0,0,1-7-5.16c.47-.67,1,.28,1.38-.45C64.67,78.78,65.29,78,66.4,77.15Z"/><path class="cls-2" d="M94.48,64.22a18.32,18.32,0,0,1-3.37-2.7,28.92,28.92,0,0,0,2.58-6.28c.7-.13.7.7,1.11.66.62.18.88-.31,1.38-.46.46.38.83,1.22,1.95.46A25.39,25.39,0,0,1,94.48,64.22Z"/><path class="cls-2" d="M88.28,65.14a21.32,21.32,0,0,1,3.43,2.62,20.51,20.51,0,0,1-6.61,5.35,17.56,17.56,0,0,1-1.87-3.94A35.57,35.57,0,0,0,88.28,65.14Z"/><path class="cls-2" d="M89,34.87a4.85,4.85,0,0,1-.23,1.82c-.16,1.07.15,1.39,1.25,1.26A1.07,1.07,0,0,1,91,38c.1.54-.22,1-.43,1.47-1.3,0-2.39-.51-3.63-.61a24.54,24.54,0,0,0-2.55-.28,4.94,4.94,0,0,1-2.72-1.06,1.13,1.13,0,0,1-.4-1.54v0a3.07,3.07,0,0,1,2-1.81A14.1,14.1,0,0,1,89,34.87Z"/><path class="cls-2" d="M73.07,76.43a18.41,18.41,0,0,1-.16-4.26L79,71.05a19.23,19.23,0,0,1,1.74,3.18.64.64,0,0,1-.46,1A30.86,30.86,0,0,1,73.07,76.43Z"/><path class="cls-2" d="M51.81,62c-.87.45-2.18-.19-2.55,1.62a26.35,26.35,0,0,1-2.66-5.24c-.18-.46.12-.79.57-.92l3.18-.9A6.12,6.12,0,0,1,51.81,62Z"/><path class="cls-2" d="M49.76,76.22c-.4,1.08-.6,2.15-1.65,2.79-.18-.07-.39-.1-.49-.22C45.7,76.46,44,74,43.61,70.9a3.21,3.21,0,0,1,1.31-3.22c.76.23,1.27.71.79,1.46-1.12,1.88-.19,3.48.57,5.07a1.9,1.9,0,0,0,2.09,1.33A1.8,1.8,0,0,1,49.76,76.22Z"/><path class="cls-2" d="M101.54,69.56a3.24,3.24,0,0,1,3.3.31c-1.09,3-2.39,5.72-5,7.65a4.37,4.37,0,0,1-2.25.82,1.26,1.26,0,0,1-1.38-.69,1.23,1.23,0,0,1,1.31-1.14l.2,0a2.29,2.29,0,0,0,1.94-.77,14,14,0,0,0,2-2.67,1.47,1.47,0,0,0,0-1.75A1.68,1.68,0,0,1,101.54,69.56Z"/><path class="cls-2" d="M68.31,25.44a3.8,3.8,0,0,1,2.34-.63,13.81,13.81,0,0,1,6.74.73,4.09,4.09,0,0,1,2.09,1.82c.26.48.35,1-.2,1.29A.91.91,0,0,1,78,28.38l0-.05c-1.09-2.09-3.13-1.94-5-2.12a1.92,1.92,0,0,0-1.79,1.05c-.79,1.17-1.47,1.16-2.23,0A2.36,2.36,0,0,1,68.31,25.44Z"/><path class="cls-2" d="M62.06,49.87a17.07,17.07,0,0,1-2.86-1.45c0-.67,1-.61.79-1.37-.2-.49-.7,0-1.05-.2a1.23,1.23,0,0,1,.08-.38,1.82,1.82,0,0,1,.78-.91,15.41,15.41,0,0,1,6.53-1.31A59.37,59.37,0,0,0,62.06,49.87Z"/><path class="cls-2" d="M105.23,68.52a4.06,4.06,0,0,1-2.49-1.64,8,8,0,0,1-1.5-3.16,2.84,2.84,0,0,1,1-2.81c.64,1.44.1,3.34,1.85,4.16,1-.67,1-2.12,2.41-2.74A15.14,15.14,0,0,1,105.23,68.52Z"/><path class="cls-2" d="M56.67,81.1c-.43.35-.75,0-1.09-.18a5.42,5.42,0,0,0-2.38-.51c-.93.06-1.2.57-.69,1.27a5.25,5.25,0,0,1,1,2.64,19.65,19.65,0,0,1-4.66-4.06c1-1.62,2.58-1.62,4.07-1.53C55.31,78.8,56.22,79.45,56.67,81.1Z"/><path class="cls-2" d="M61,27.34a14.08,14.08,0,0,1,5.93-1.77,3.27,3.27,0,0,1-.1,2.8,7.2,7.2,0,0,1-2.08,3,2.7,2.7,0,0,1-2.67.49c.06-.67.63-.79.94-1.1a6,6,0,0,0,1.39-1.46c.5-.89.24-1.38-.78-1.34A4.55,4.55,0,0,1,61,27.34Z"/><path class="cls-2" d="M70.43,76.52c-2.39-1.17-3.71-3.24-5.07-5.34A32.09,32.09,0,0,0,71.6,72a6.78,6.78,0,0,1,.26,3.31c-.67.29-1-.63-1.63-.17C69.82,75.64,70.68,75.88,70.43,76.52Z"/><path class="cls-2" d="M82.62,55.75A1.39,1.39,0,0,1,82.86,57l-4.92,3.33a2,2,0,0,1-.48-1.43c.69-.91,1.92-1.13,2.7-2.07-1-.66-2.22-.61-3.21-1.12a2.19,2.19,0,0,1-.28-1.54C78.78,54.45,80.69,55.35,82.62,55.75Z"/><path class="cls-2" d="M70.67,55.4c.56,1.2.54,1.34-.36,2-.63.47-1.29.93-2,1.45.65.68,1.46.51,2.15.68,1.2.3,1.29.41,1.37,1.72-.25.32-.57.17-.85.16l-4.33-1.06c-.42-.11-.9-.2-1-.77s.18-.82.56-1.11l3.75-2.83C70.15,55.49,70.37,55.29,70.67,55.4Z"/><path class="cls-2" d="M74.48,61.91a3.33,3.33,0,0,1-1.87.21c.32-2.84,1-5.6,1.4-8.38a3.11,3.11,0,0,1,1.88-.46C75.65,56.24,74.93,59,74.48,61.91Z"/><path class="cls-2" d="M59.15,85.11a1.33,1.33,0,0,1-1.28-.72c1.31-2.4-.34-4-1.69-5.66a3.61,3.61,0,0,1-1.12-2.5c.69-.3,1.06.19,1.43.52a12.2,12.2,0,0,1,3.33,5A3,3,0,0,1,59.15,85.11Z"/><path class="cls-2" d="M58.75,31.24c.87,1.89,2.59,1.63,4.19,1.61a12.64,12.64,0,0,0,2.11-.39,2.07,2.07,0,0,1,2.19.49c0,.32-.25.46-.51.56a10.39,10.39,0,0,1-7.48.37,3.9,3.9,0,0,1-1.08-.54c-.42-.32-.9-.69-.76-1.31S58,31.31,58.75,31.24Z"/><path class="cls-2" d="M98.57,65.13a2.67,2.67,0,0,1,0-2.13,9.27,9.27,0,0,1,3.69-5.75,2.3,2.3,0,0,1,1.38-.49c.54,0,.95.28,1,.89s-.26.9-.8.87a2.27,2.27,0,0,0-2,1.32,9.56,9.56,0,0,0-1.59,3.25A3.25,3.25,0,0,1,98.57,65.13Z"/><path class="cls-2" d="M89.15,52.28a1.57,1.57,0,0,0,2.12-.49,14.47,14.47,0,0,1-2,6.88A4.33,4.33,0,0,1,88.58,57a11.87,11.87,0,0,0-1.28-3.08c-.27-.44-.44-.86,0-1.27.66.2,0,.92.62,1.13C88.79,53.72,88.37,52.66,89.15,52.28Z"/><path class="cls-2" d="M66.15,31.42c.41-1,.9-1.31,1.77-1.05a13.87,13.87,0,0,0,4.87.72A3.47,3.47,0,0,1,75.4,32C72.15,33.28,69.22,32.55,66.15,31.42Z"/><path class="cls-2" d="M54.09,77.74c-.63.24-1.29.08-1.4-.57-.39-2.48-2-4.49-2.52-6.91a1,1,0,0,1,.08-.38C52.19,70.47,54.43,75,54.09,77.74Z"/><path class="cls-2" d="M100.31,64.93c.74.46,1,1.1.43,1.58C99,68.06,98,70.23,96.36,71.9c-.24.24-.4.64-1.07.45C95.9,69.13,97.9,66.92,100.31,64.93Z"/><path class="cls-2" d="M93.17,64.71c-.89.26-1,1-1.32,1.64a6.75,6.75,0,0,1-2.68-2.08,4.64,4.64,0,0,1,1.32-1.75A7.71,7.71,0,0,1,93.17,64.71Z"/><path class="cls-2" d="M46.52,71.86a40.67,40.67,0,0,0,3.75,1.7c.64.33.75.72.72,1.68C48.61,75.13,46.7,73.83,46.52,71.86Z"/><path class="cls-2" d="M100,68.76a15,15,0,0,1,.62,4.15,1.55,1.55,0,0,1-1,1.4.51.51,0,0,1-.4-.56,10.89,10.89,0,0,0-.31-2.67C98.72,70.19,99,69.52,100,68.76Z"/><path class="cls-2" d="M70,29.6c.94-.76,1.78-1.55,2.72-2.19a2.08,2.08,0,0,1,2.4.14c-1.2.9-2.25,1.77-3.4,2.5A1.19,1.19,0,0,1,70,29.7Z"/><path class="cls-2" d="M82.21,72.36c-1.53-.1-1.69-.25-1.95-1.7a3.4,3.4,0,0,1,1.8-.88C83.1,70.89,83.11,71.07,82.21,72.36Z"/><path class="cls-2" d="M79.93,36.71a22.76,22.76,0,0,0-4.16-1.52C77.64,34.09,79.7,34.82,79.93,36.71Z"/><path class="cls-2" d="M59.58,38.74A2.79,2.79,0,0,1,61,42C60.29,41.76,59.77,40.61,59.58,38.74Z"/><path class="cls-2" d="M92.71,71.37c-.49,2-.75,2.15-2.15,1.76A4.2,4.2,0,0,1,92.71,71.37Z"/><path class="cls-2" d="M50.72,65.69A2.73,2.73,0,0,1,52,65.22a4,4,0,0,1,.44,2.41A11.19,11.19,0,0,1,50.72,65.69Z"/><path class="cls-2" d="M73.62,82c.73,1,0,1.5-.45,2.26C72.56,83.29,73,82.75,73.62,82Z"/><path class="cls-2" d="M50.08,64.17c.17-.8.47-1.17,1.15-.92a.46.46,0,0,1,.25.6l0,.07C51.13,64.57,50.66,64.46,50.08,64.17Z"/><path class="cls-2" d="M46,56.13a.86.86,0,0,1-.38-1.07c.49-.28.76,0,1,.25C46.54,55.8,46.37,56.08,46,56.13Z"/><path class="cls-2" d="M48.89,54.76a.7.7,0,0,1,.48-.86l.08,0a.88.88,0,0,1,.47.9C49.56,55.17,49.23,55.09,48.89,54.76Z"/><path class="cls-2" d="M72.15,84.82c.66.57.52,1-.08,1.44C71.19,85.72,71.73,85.32,72.15,84.82Z"/><path class="cls-2" d="M47.45,56.19c.31-.62.68-.6,1.24-.4C48.3,56.29,48,56.42,47.45,56.19Z"/><path class="cls-2" d="M48,53.73c-.26.66-.58.75-1.12.52C47.1,53.75,47.45,53.72,48,53.73Z"/><path class="cls-2" d="M90.52,74.55c.37-.28.65-.32.84,0a.37.37,0,0,1-.15.5.19.19,0,0,1-.08,0C90.74,75.22,90.58,75,90.52,74.55Z"/><path class="cls-2" d="M95.1,54.21s.15.08.16.14-.06.23-.19.19a.25.25,0,0,1-.12-.18Z"/><path class="cls-2" d="M97.46,54.86l-.14-.14.08-.07.15.12Z"/><path class="cls-2" d="M89.77,51.06c.08,0,.18,0,.22.07a.17.17,0,0,1,0,.22.12.12,0,0,1-.17,0,.13.13,0,0,1,0-.07A1,1,0,0,1,89.77,51.06Z"/><path class="cls-2" d="M82.93,74,83,74l-.09,0,0-.07Z"/><path class="cls-2" d="M71.77,39.27l.1,0c.09,0,.11.07,0,.15a.15.15,0,0,1-.1,0A1,1,0,0,0,71.77,39.27Z"/><path class="cls-3" d="M57.72,132a14.47,14.47,0,0,1,0-2.55c.11-.07.16-.14.21-.14,2.88,0,5.77-.31,8.62.29a9.27,9.27,0,0,1,7.57,8.76,12,12,0,0,1-.49,4.61,9.16,9.16,0,0,1-7.69,6.46c-2.67.46-5.37.13-8.15.23a13.12,13.12,0,0,1,0-2.73,1.45,1.45,0,0,1,1-.16c1.78,0,3.57-.08,5.34,0,4.28.24,7.34-3.19,7.24-7.49a7.54,7.54,0,0,0-1.69-4.76,6.32,6.32,0,0,0-5-2.38H58.42A.92.92,0,0,1,57.72,132Z"/><path class="cls-3" d="M138.74,143V129.36a17.28,17.28,0,0,1,2.69-.09v20.52c-.33-.06-.46-.32-.65-.5q-7.8-8-15.6-15.91a1.81,1.81,0,0,1-.61-1.45c0-1,.07-2,.17-2.94q6.92,7,13.75,14.1Z"/><path class="cls-3" d="M27,131.88a20,20,0,0,1,0-2.68c3.72-.12,9.43,3.62,9.5,10.16.06,6.32-5.34,10.4-9.5,10.37A15.44,15.44,0,0,1,27,147a7.74,7.74,0,0,0,5.43-3.38,7.43,7.43,0,0,0,1.24-4.44C33.57,136.28,31.83,132.83,27,131.88Z"/><path class="cls-3" d="M25.21,129.14v2.77a7.6,7.6,0,0,0-6.61,8.24c.21,3.39,2.69,6,6.61,6.87a24.14,24.14,0,0,1,0,2.69c-4.23.44-9.06-4.37-9.51-9.43A10.39,10.39,0,0,1,25.21,129.14Z"/><path class="cls-3" d="M100.19,149.61a23.6,23.6,0,0,1-2.66,0V129.42a1,1,0,0,1,.68-.15h2Z"/><path class="cls-3" d="M124.65,135.41l2.52,2.5a.82.82,0,0,1,.29.64v11a21.93,21.93,0,0,1-2.81.08Z"/><path class="cls-3" d="M28.71,135.81a3.9,3.9,0,0,1,0,1.92c-1.13.69-2.43,1.07-3.69,1.85a7.91,7.91,0,0,0,1.53.72l1.11.45c1.26.53,1.43.94.93,2.36l-5.9-2.63a1.16,1.16,0,0,1-.47-.32,2.91,2.91,0,0,1,0-1.1Z"/><path class="cls-3" d="M64.38,139.78c-1.09-.68-2.18-1-3.16-1.53a2.39,2.39,0,0,1,0-1.54,1.37,1.37,0,0,1,.87.28l4.18,2.09c.36.17.77.31.72.83s-.41.63-.77.77L62,142.53a1.34,1.34,0,0,1-.77.21c-.33-1.34-.27-1.44.91-2A11.26,11.26,0,0,0,64.38,139.78Z"/><path class="cls-3" d="M57.69,143.83a5.3,5.3,0,0,1-1.32.08.6.6,0,0,1-.52-.18l3-8.16a4.75,4.75,0,0,1,1.84.11Z"/></g></g></svg>