<svg xmlns="http://www.w3.org/2000/svg" fill="#dfe4ea" viewBox="0 0 168.49 152.04"><g data-name="Capa 2"><g data-name="Capa 1"><path d="M41.94 57.67c.49.06.58.53.77.84A56.71 56.71 0 0 0 55.33 73a45.51 45.51 0 0 0 33.43 9.94 45 45 0 0 0 31.49-17.64 43.94 43.94 0 0 0 8.44-18.3 40.43 40.43 0 0 0 .87-11.67c-.12-1.39 0-2.78-.16-4.18a41.86 41.86 0 0 0-2.23-9.52.81.81 0 0 1 0-.71 8.71 8.71 0 0 1 1.41 2.53c.44.88.88 1.76 1.29 2.6.5 0 .54-.31.6-.57 1.75-7.08 6.34-11.93 12.33-15.67a47.23 47.23 0 0 1 9.2-4.37 1.73 1.73 0 0 0 .92-.62c-.12-.29-.37-.23-.6-.22-8.11.33-16.22.22-24.33.47a19.49 19.49 0 0 1-2.75.06A7.9 7.9 0 0 0 119.48 7c-1.93 1.47-4 2.77-6 4.17-.72-.64-1.1-1.45-1.74-2.11a9.75 9.75 0 0 1 2.39-1.8c2.22-1.56 4.48-3.06 6.71-4.62a2.19 2.19 0 0 1 1.33-.42c3.47 0 6.94-.13 10.41-.24 7.35-.22 14.7-.19 22-.37 1.8 0 3.6 0 5.39-.11 2.47-.17 4.94-.16 7.42-.18a2.67 2.67 0 0 1 1.08.08c-.15.39-.49.46-.82.59l-13.56 5.37c-1.52.6-3 1.21-4.56 1.76a25.61 25.61 0 0 0-7.23 4.62 29.76 29.76 0 0 0-7.78 8.86 13.73 13.73 0 0 0-1.75 5.65c-.36 5-.91 10-1.29 15-.13 1.75-.23 3.51-.42 5.25a21.91 21.91 0 0 1-1.47 5.28 48.86 48.86 0 0 1-29.08 29 37.58 37.58 0 0 1-14.62 2.63c-2.59-.11-5.2.13-7.79-.1a41.79 41.79 0 0 1-10.44-2.47A47.65 47.65 0 0 1 47.47 69a15 15 0 0 0-7.76-4.83 9.29 9.29 0 0 0-7.4.81c-6 3.53-12 7-18 10.47-1.46.85-2.91 1.73-4.38 2.61-.1-.32.11-.42.24-.54q8.39-7.9 16.83-15.75l12.52-11.7a5.34 5.34 0 0 1 1.59-1c2.74-1.18 5.47-2.4 8.21-3.61a1 1 0 0 0 .53-.44c-.27-1.35-.61-2.79-.83-4.24a36.23 36.23 0 0 1 0-10c.09-.66.12-.66.61-1.26.58.18.45.64.41 1.06-.1 1-.23 2-.28 3a33.8 33.8 0 0 0 4.41 19.12 2.5 2.5 0 0 1 .39 2.22 11.92 11.92 0 0 1-2.11-3.36c-.61-1.1-1.09-2.29-1.64-3.48A26.56 26.56 0 0 0 47 49.67c-1.45.57-2.86 1.22-4.3 1.83a7.46 7.46 0 0 0-2.25 1.5c-3.21 3-6.46 6.08-9.68 9.12-.22.21-.56.34-.57.9 1.18-.18 2-1.09 3.06-1.38a16.11 16.11 0 0 1 3.42-.53 12.86 12.86 0 0 1 3.43.44c1.12.26 2.17.75 3.39 1.11a14.71 14.71 0 0 0-.86-2.66c-.23-.8-.82-1.49-.68-2.38Z"/><path d="M84.19 4.43A31.15 31.15 0 1 1 53 35 31.2 31.2 0 0 1 84.19 4.43Zm28.45 21.84a1.53 1.53 0 0 0 0-1.51 32.8 32.8 0 0 0-4.86-8.35A30.38 30.38 0 0 0 100 9.68c-.31-.18-.62-.57-1-.16 0 .59.51.69.86.91a30.18 30.18 0 0 1 8 7.31c.16.19.45.4.13.69h-.13c-.03 0-.35-.19-.52-.29a33.33 33.33 0 0 0-11.09-4.36 27.58 27.58 0 0 1-6.88-2c-.32-.15-.72-.21-.69-.74a1.43 1.43 0 0 1 1.71-.34l1.92.69a16.26 16.26 0 0 0 4.31 1c.54 0 1.22.18 1.44-.5s-.43-1-.86-1.29a8.23 8.23 0 0 0-1.6-.9 2.23 2.23 0 0 1-1.33-1.82c1.18.12 2.06.91 3.31 1-.3-1-1.06-1.11-1.64-1.34A31 31 0 0 0 83.2 5.23a32.11 32.11 0 0 0-9.6 1.9c-.38.14-.85.23-.8 1a11 11 0 0 1 3.52-.66 7.12 7.12 0 0 1 3.45 1.2 1.66 1.66 0 0 1-2.14.55c-2.7-.92-4.9.23-7 1.77a.86.86 0 0 0-.4.84c.19.48.62.54 1.08.54a8.14 8.14 0 0 0 1.9-.21c.71-.19 1.22.05 1.63.87-2.49.94-5.11 1.09-7.52 2a64.63 64.63 0 0 0-7 3.36c.3-1.36 1.77-2 2.08-3.31-.63-.19-.8.21-1 .45a28.41 28.41 0 0 0-2.54 3.33 30.8 30.8 0 0 0-5.09 16 27.08 27.08 0 0 0 .76 7 29.65 29.65 0 0 0 13.21 19.23 30.38 30.38 0 0 0 34-.72 30 30 0 0 0 7-7.08 31.06 31.06 0 0 0 3.26-5.43 30.44 30.44 0 0 0 2.42-15.68 27 27 0 0 0-.84-4.46c-.09-.31-.13-.66-.61-.57-.44.39-.1.83 0 1.21a32.21 32.21 0 0 1 .68 10.94 7.13 7.13 0 0 1-3.65 5.81.65.65 0 0 1-.45-1 2.09 2.09 0 0 1 .61-.88c2.11-1.76 2.33-4.16 2.2-6.66 0-.57-.18-1.12-.92-1.21-.92.42-1.07 1.34-1.36 2.15a1.66 1.66 0 0 1-1.72 1.27c.52-2.63 1.62-5 2-7.53a48.87 48.87 0 0 0 .53-7.86c1.05.88.76 2.24 1.75 2.88Z"/><path d="M47.26 53.66a1.88 1.88 0 0 1 2.09-1.09c1.63 2.6 3 5.34 4.95 7.7a66.13 66.13 0 0 0 4.85 5 38.47 38.47 0 0 0 4.35 3.42 33.93 33.93 0 0 0 3.66 2.13 31.42 31.42 0 0 1 3 1.48 1 1 0 0 0 .44.19 18.59 18.59 0 0 1 4.33 1.28c3.22 1 6.52 1 9.8 1.11a40.55 40.55 0 0 0 7-.55 20.25 20.25 0 0 0 3.77-1.09 35.81 35.81 0 0 0 3.78-1.43c1.5-.71 3-1.43 4.45-2.26a25.41 25.41 0 0 0 4.72-3.32 27.82 27.82 0 0 0 2.48-2.38c1.16-1.35 2.52-2.52 3.57-4a41.57 41.57 0 0 0 4.33-7.26 48.49 48.49 0 0 0 2.51-7.18c2.4-8.81 2.07-17.45-2-25.77-.11-.23-.35-.44-.21-.81.45.09.6.42.77.78a42.49 42.49 0 0 1 3.6 11.48 38.64 38.64 0 0 1 .61 7.73 48.13 48.13 0 0 1-1.15 8.27 37.39 37.39 0 0 1-4.17 10.25 48.8 48.8 0 0 1-4.35 6.18 38 38 0 0 1-6.11 5.72 44.24 44.24 0 0 1-5.45 3.49 40.3 40.3 0 0 1-7.06 3.06 16.81 16.81 0 0 1-5.43 1.25c-2.15 0-4.28.49-6.45.45A46.83 46.83 0 0 1 77 77a24.06 24.06 0 0 1-4.68-1.32A28.19 28.19 0 0 1 69 74.39a19.16 19.16 0 0 1-2.93-1.48c-.58-.46-1.35-.61-2-1-2-1.42-4.07-2.77-6-4.4-1-.87-2.07-1.73-3.05-2.63a20 20 0 0 1-2.57-3.11c-.89-1.22-1.88-2.36-2.69-3.63a47.57 47.57 0 0 1-2.5-4.48ZM54.71 103.73a18.42 18.42 0 0 1-.06-3.32c.14-.1.21-.19.27-.19 3.75 0 7.52-.4 11.23.38A12.06 12.06 0 0 1 76 112a15.45 15.45 0 0 1-.64 6 11.93 11.93 0 0 1-10 8.42c-3.48.6-7 .16-10.62.29a17 17 0 0 1-.06-3.55 1.86 1.86 0 0 1 1.25-.2c2.32 0 4.64-.11 6.95 0 5.57.3 9.55-4.16 9.42-9.76a9.8 9.8 0 0 0-2.2-6.2 8.19 8.19 0 0 0-6.48-3.09h-8a1.22 1.22 0 0 1-.91-.18ZM160.18 118v-17.71a22.85 22.85 0 0 1 3.51-.12v26.72c-.43-.08-.61-.42-.85-.66q-10.16-10.37-20.31-20.71a2.33 2.33 0 0 1-.79-1.88 37.23 37.23 0 0 1 .22-3.83q9 9.18 17.9 18.35ZM14.72 103.57a27 27 0 0 1 0-3.49c4.85-.16 12.28 4.71 12.37 13.23.08 8.23-6.95 13.53-12.37 13.5a22 22 0 0 1 0-3.54 10.08 10.08 0 0 0 7.07-4.4 9.67 9.67 0 0 0 1.62-5.78c-.14-3.79-2.41-8.29-8.69-9.52ZM12.38 100v3.61a9.91 9.91 0 0 0-8.61 10.73c.28 4.41 3.51 7.82 8.61 8.94a29.18 29.18 0 0 1 0 3.5c-5.51.58-11.8-5.69-12.38-12.27A13.53 13.53 0 0 1 12.38 100ZM110 126.65a28.72 28.72 0 0 1-3.47 0v-26.28a1.24 1.24 0 0 1 .89-.2H110ZM141.84 108.17l3.28 3.25a1.09 1.09 0 0 1 .38.83v14.34a29.67 29.67 0 0 1-3.66.1Z"/><path d="M77.08 69.52q21.45 3.42 35-13.42c.69.5.37.89.1 1.27a25.22 25.22 0 0 1-2.67 3.07 33.8 33.8 0 0 1-8.17 6.19 3.5 3.5 0 0 1-1.33.51c-.62 0-1.16.13-1.46.82-.1.22-.52.33-.82.44A43.74 43.74 0 0 1 80.62 71a23.07 23.07 0 0 1-3.08-.44c-.54-.08-.54-.12-.46-1.04ZM1.53 151.81v-15.22c2.22-.07 4.4-.31 6.5.56 3 1.25 4.77 4.46 4.4 8.14a7.41 7.41 0 0 1-5.86 6.33 20.14 20.14 0 0 1-5.04.19Zm.83-.94c3.5.71 6.59-.39 8.21-2.87a7.07 7.07 0 0 0-.14-7.88 7.78 7.78 0 0 0-8.07-2.67ZM101.06 136.29a7.78 7.78 0 0 1 7.75 8 7.89 7.89 0 1 1-7.75-8Zm6.93 7.87a7.05 7.05 0 0 0-7-7.14 7.22 7.22 0 0 0-7.22 7.11 7.12 7.12 0 0 0 7.07 7.1 6.93 6.93 0 0 0 7.16-7.07ZM16.94 108.68a5.23 5.23 0 0 1 0 2.51c-1.48.89-3.17 1.39-4.81 2.4a10.22 10.22 0 0 0 2 .94l1.44.59c1.64.68 1.86 1.22 1.21 3.07l-7.68-3.43a1.41 1.41 0 0 1-.61-.41 3.6 3.6 0 0 1 0-1.44ZM155.83 146.61c-.15 1.52 0 3-.08 4.38 0 .63 0 .62-.73.85v-15.27a20 20 0 0 1 4.77.11 5 5 0 0 1 3.61 4.32 5 5 0 0 1-2.6 4.9 3.23 3.23 0 0 0-1.12.64l3.31 5.18c-.63.35-.92 0-1.19-.42-.77-1.21-1.55-2.42-2.33-3.62-.23-.37-.48-.73-.72-1.07a13 13 0 0 0-2.92 0Zm0-.91h2.89a4.22 4.22 0 0 0 .49-8.35 10.67 10.67 0 0 0-3.38 0ZM23.24 151h6.31c.36 0 .49.32.34.74H22.4v-15.19c2.5 0 5-.07 7.45 0 .18.72-.27.64-.61.64h-4.8a3.06 3.06 0 0 0-1.22.12v6.47h6.66c.08.77-.39.65-.71.66h-4.55a2.65 2.65 0 0 0-1.38.19ZM60.65 151H67c.36 0 .5.31.35.73h-7.54v-15.18c2.49 0 5-.06 7.44 0 .19.72-.26.65-.6.65H62a2.57 2.57 0 0 0-1.35.16v6.29c2.25.34 4.49-.21 6.66.31a2 2 0 0 1 0 .38c-2.18.31-4.4-.06-6.67.22ZM137.85 137.41v6.42h6.66c.07.78-.4.65-.72.66h-4.55a2.65 2.65 0 0 0-1.38.19v6.15c.36.33.82.19 1.24.2h4.68c.46 0 .92 0 .71.76H137v-15.22c2.51-.06 5-.08 7.45 0 .18.72-.27.64-.61.64h-4.8a2 2 0 0 0-1.19.2ZM119.3 146.61v4.4c0 .62 0 .62-.74.82v-15.24a19.52 19.52 0 0 1 4.65 0 5 5 0 0 1 3.76 5 4.92 4.92 0 0 1-4.4 4.73c-1.02.19-2.05.22-3.27.29Zm.06-.91h2.88a4.21 4.21 0 0 0 1-8.22 12.17 12.17 0 0 0-3.91-.16ZM62.8 8.34c-.38-.85 0-1.11.3-1.33a25.4 25.4 0 0 1 4.48-2.75 3.12 3.12 0 0 1 1-.26c.23 0 .54 0 .67-.19 1.31-1.48 3.2-1.72 4.9-2.3C79.78-.4 85.5-.27 91.24.65c.08 0 .14.07.22.1.18.33.08.61-.23.94a40.61 40.61 0 0 0-9.93-.55 35.84 35.84 0 0 0-9.76 2.27 39.24 39.24 0 0 0-8.74 4.93ZM63.37 113.86c-1.42-.89-2.83-1.34-4.11-2a3.14 3.14 0 0 1 0-2 1.7 1.7 0 0 1 1.13.36l5.45 2.72c.46.23 1 .4.93 1.08s-.53.82-1 1l-5.46 2.42a1.86 1.86 0 0 1-1 .27c-.43-1.75-.35-1.88 1.19-2.55a15 15 0 0 0 2.87-1.3ZM54.67 119.12a6.21 6.21 0 0 1-1.72.11.81.81 0 0 1-.68-.23l3.95-10.63a6.33 6.33 0 0 1 2.39.14ZM117.43 46.62c-.45-.36-.21-.76-.11-1.12a36 36 0 0 0 .84-16.5 33.84 33.84 0 0 0-2.67-8.17c-.16-.38-.54-.73-.22-1.24.57-.17.75.28 1 .64a24.15 24.15 0 0 1 1.73 4.33 35.23 35.23 0 0 1 .86 18.91c-.17.78-.39 1.55-.63 2.3-.13.39-.23.89-.8.85ZM39.23 136.69c.83-.25.88.28 1 .65.49 1.35 1 2.7 1.44 4 1 2.67 1.89 5.34 2.84 8a1.09 1.09 0 0 0 .41.69 1.71 1.71 0 0 0 .38-.76q2.11-6 4.22-11.95c.15-.43.22-1 1-.69L45.1 151.9h-.41c-1.81-5.06-3.63-10.11-5.46-15.21ZM96 1.76c.23.65.52 1.1 1.12 1.09a6.39 6.39 0 0 1 3 1A35.36 35.36 0 0 1 111 12.32a1.08 1.08 0 0 1 .16.3c-.23.53-.58.37-.86.13-.55-.46-1.07-1-1.58-1.47A33.8 33.8 0 0 0 94 2.48c-.39-.11-.89-.12-1.09-.79 1.03-.48 1.99.5 3.09.07ZM78 136.65c.36-.11.63-.11.69.27a6.11 6.11 0 0 1 0 1v12.87c.44.43.9.28 1.32.29h3.72c.44 0 1 0 .71.76H78ZM58.62 12.2a59.2 59.2 0 0 0-4.44 6.18c-1.26 2.14-2 4.53-3.16 6.73-.77-.36-.56-.75-.44-1.12a34.71 34.71 0 0 1 3.51-7.32 28.63 28.63 0 0 1 3.07-4.12c.33-.36.62-.87 1.46-.35ZM61.91 62.75c.67-.32 1.09.15 1.51.46a35.46 35.46 0 0 0 6.81 4c1.36.57 2.76 1 4.14 1.54.36.13.82.1.95.58-.14.37-.44.32-.7.24-1-.31-2.11 0-2.79-1.06a.81.81 0 0 0-.66-.22 4.54 4.54 0 0 1-2.28-.65 34.23 34.23 0 0 1-6.41-3.93c-.27-.23-.66-.38-.57-.96ZM55.94 55.59a51.43 51.43 0 0 0 5.35 5.94c-.47.67-.86.37-1.23.07a23.57 23.57 0 0 1-2.84-2.9c-.49-.57-1-1.16-1.4-1.77-.25-.34-.56-.72.12-1.34ZM117.27 48.61a22.28 22.28 0 0 1-2.34 4.62c-.18.24-.48.28-.86-.07.71-1.47 1.44-3 2.21-4.49.12-.25.4-.39.99-.06ZM114.15 18.12l-2.55-3.68a1 1 0 0 1 1.49.53c.57.94 1.57 1.71 1.49 2.94ZM58.92 10.8a5.21 5.21 0 0 1 2.74-2.2c0 1.19-1 1.54-1.64 2.21-.25.27-.61.57-1.1-.01ZM50.34 26.23a1.41 1.41 0 0 1-.4 2.11c-.6-.71-.5-1.34.4-2.11ZM113.06 55.45c-.23-.73 0-1 .77-1.07.17.71-.01 1.06-.77 1.07ZM42 57.66l-.14-.09c.16-.1.11 0 .12.1ZM74.05 50.23c-.41.9-1.12.84-1.86.67-.31.57-.19 1.39-1 1.48-1.27-1.11-3-4.86-3.36-7.28.44-.67 1.49-.3 1.94-1.08-.66-.76-1.43 0-2.32-.23a19.26 19.26 0 0 1-.3-7.79c.57-.1.66.54 1.25.51.62-.32 1.54-.47 2-1.36-.46-.4-.72-.13-1 0a1.76 1.76 0 0 1-.92.37 1.76 1.76 0 0 1-.81-1.92 23.73 23.73 0 0 1 3.88-8.3c.06-.09.19-.14.33-.24a16.86 16.86 0 0 1 2.32 1.79c-.13.61-1 .28-1 1 0 .48.58.27.86.58a25.58 25.58 0 0 0-2.47 5.72c-.71-1-1.41-1-2.16-.45-.39.3-1.13.32-.91 1.13.77.23 1.14-.62 1.86-.54a1.88 1.88 0 0 1 .73 1.85 19.65 19.65 0 0 0-.11 5.71 2.28 2.28 0 0 1-.2 1.72c1.31 1.25 1 3.26 2.41 4.39.56-.32.28-.69.13-1a22.7 22.7 0 0 1-1.56-5.51 16.22 16.22 0 0 1 .27-5.94 19.41 19.41 0 0 1 6.36-10.6A18.81 18.81 0 0 1 81.06 23c.35-.21.72-.49 1.17-.23 0 .5-.41.52-.66.67-5.72 3.38-8.62 8.48-9.14 15a17.37 17.37 0 0 0 2.88 10.68 22.21 22.21 0 0 0 7.83 7.61 1.76 1.76 0 0 0 2.09 0 22.89 22.89 0 0 0 3.12-2.22 1.41 1.41 0 0 1 1.5-.41c-.72.62-1.42 1.28-2.18 1.86s-1.72 1.15-2.6 1.71a1.48 1.48 0 0 1-1.76 0 24.71 24.71 0 0 1-8.68-8.26c-.23-.35-.34-.83-.82-1-.34.41-.34.41.24 1.82Z"/><path d="M96.22 40.31c-.36-.33-.22-.67-.22-1a18.29 18.29 0 0 0-4.49-12C88 23.18 83.42 21.29 78 21.14a25 25 0 0 0-11 2.54 2.52 2.52 0 0 0-1.74 3c.18 1.1.22 2.22.43 3.32a1.36 1.36 0 0 1-.37 1.44 22.76 22.76 0 0 1-.67-6.49 1.32 1.32 0 0 1 .84-1.09l2-1.08c.24-.13.52-.24.55-.59-.13-.54-.73-.16-1.08-.6-.4-.95.94-1.69.68-2.76-.86-.15-.83.78-1.33 1a2.77 2.77 0 0 1 1.78-2.5 27.47 27.47 0 0 1 4.25-1.22 2.12 2.12 0 0 1 1.47 0 7.84 7.84 0 0 1 .35 3.43c-1 .77-2.4.33-3.35 1.28.57.61 1.12.29 1.62.17a19.81 19.81 0 0 1 10.57.2A18.45 18.45 0 0 1 94.69 31a17.74 17.74 0 0 1 2 8.05c-.02.42.07.95-.47 1.26ZM108.49 25.61c-.47.16-.69-.57-1.15-.17s.32.66.19 1.06-1-.05-1 .62.73.23.95.58-.26.49-.14.78.6.09 1 .38a23.51 23.51 0 0 1-1.76 7 29.81 29.81 0 0 1-3.46-1.49 40.59 40.59 0 0 0 1.46-6.48c.45-.57 1.21-.18 1.27-.88-.06-.32-.3-.38-.54-.42a1 1 0 0 1-.65-.36c.09-1.39-.05-2.85-1.71-3.43a3.29 3.29 0 0 1 .54-1.69c.44-1.07.25-1.36-.91-1.36a1 1 0 0 1-.74-.16c-.12-.56.23-.91.66-1.29a13.82 13.82 0 0 1 2.68 1.3 12.85 12.85 0 0 0 1.12.68 3.33 3.33 0 0 1 2.17 3.81 10.69 10.69 0 0 0 .02 1.52Z"/><path d="M101.18 31.37c-.36-.12-.33-.4-.41-.61a24.91 24.91 0 0 0-10.15-12.38A23.69 23.69 0 0 0 81 15.05a28.14 28.14 0 0 0-9.86.52A29.06 29.06 0 0 0 60 20.77a1.84 1.84 0 0 0-.84 1.38c-.23 4.53-.1 9 1.51 13.34a29.11 29.11 0 0 0 3.5 6.93 1.72 1.72 0 0 1 .49 1.27c-.39.07-.46-.21-.58-.39a29.7 29.7 0 0 1-5.19-11.87 41.54 41.54 0 0 1-.47-9.18 2.51 2.51 0 0 1 1.14-2.12A33 33 0 0 1 70.84 15a27.57 27.57 0 0 1 10.47-.59A24.76 24.76 0 0 1 91 17.78a25.32 25.32 0 0 1 10 11.84c.27.53.65 1.13.18 1.75Z"/><path d="M79.23 52.24c1.22.12 2.28.25 3.35.32a23.86 23.86 0 0 0 18.08-6.19 24.56 24.56 0 0 0 6.24-9 30.81 30.81 0 0 0 2.15-7.58 38.61 38.61 0 0 0 .19-7.29 2.6 2.6 0 0 0-1.24-2.06 30.09 30.09 0 0 0-13.33-5.32 24.36 24.36 0 0 0-6-.19 2.48 2.48 0 0 1-2.08-.44 20.31 20.31 0 0 1 4.43-.34A31.35 31.35 0 0 1 108.64 20a2.64 2.64 0 0 1 1.29 2.17 35.77 35.77 0 0 1-.42 9 28.28 28.28 0 0 1-4.61 11.35 24.62 24.62 0 0 1-14.85 10.2 26.51 26.51 0 0 1-9.39.42 1.62 1.62 0 0 1-1.43-.9Z"/><path d="M101.2 48.36a15.48 15.48 0 0 1-1.9 3.94 29.83 29.83 0 0 1-12.52 11.5c-2.79 1.42-2.8 1.34-5.6-.17A32.66 32.66 0 0 1 72 56.39 26.29 26.29 0 0 1 65.38 40 23 23 0 0 1 68 28.42a25.52 25.52 0 0 1 2.69-4.53 2.46 2.46 0 0 1 1.42-1c0 .59-.34.83-.57 1.13a23.62 23.62 0 0 0-5.11 19.19 26.16 26.16 0 0 0 8.21 15A31.52 31.52 0 0 0 83.45 64a1.59 1.59 0 0 0 1.38.06c6.6-3 11.79-7.54 15-14.17.26-.63.49-1.27 1.37-1.53ZM63.32 52.87a1.32 1.32 0 0 1 1.16 1.23c.45 2.6 2.3 4 4.39 5.19a3.87 3.87 0 0 0 .67.26c.4.13.81.17 1.08-.22a.91.91 0 0 0-.11-1.11 16.86 16.86 0 0 0-1.13-1.4A1.38 1.38 0 0 1 69.2 55c.46-.11.61.23.81.46a47.25 47.25 0 0 0 5.15 5.15 29.72 29.72 0 0 0 5.46 3.65c.21.1.45.19.51.46s-.28.25-.49.22a29.61 29.61 0 0 1-15.21-6.46 6.55 6.55 0 0 1-2.37-4.9.7.7 0 0 1 .26-.71Z"/><path d="M103.12 51.57c.43 1-.09 1.49-.67 2a31.8 31.8 0 0 0-3.87 3.74c-.28.34-.55.69-.8 1s-.38.65-.08 1a.89.89 0 0 0 1 .24 7.27 7.27 0 0 0 2-1 2.56 2.56 0 0 1 2.25-.48c-.93 2.51-11.85 7.23-15.73 6.79-.08-.4.27-.43.49-.55a33.21 33.21 0 0 0 9.8-8 23.4 23.4 0 0 1 4.64-4.3 2.16 2.16 0 0 1 .97-.44ZM60.71 44a1.52 1.52 0 0 1-1.2-1.48A25.57 25.57 0 0 0 58 36.75c-.23-.61-.4-1.5-1.28-1.31s-.74 1-.78 1.7a6.33 6.33 0 0 0 .06 1.44 2.38 2.38 0 0 1-.74 2.05c-1.42-3.26-.52-13.24 2-17 .27.05.26.26.25.46a33.79 33.79 0 0 0 2.25 13.49 18.33 18.33 0 0 1 1.13 5.48 1.5 1.5 0 0 1-.18.94ZM87.44 57.23a1.41 1.41 0 0 1 .65 1.77 1.29 1.29 0 0 0 .7 1.88 25.77 25.77 0 0 1-4.28 2.38.86.86 0 0 1-.7 0 20.73 20.73 0 0 1-4.19-2.28 1.83 1.83 0 0 1-.32-.41 19.49 19.49 0 0 1 2.06-2.82 4.23 4.23 0 0 1 1.83.83 2 2 0 0 0 2 0 12.55 12.55 0 0 1 2.25-1.35ZM74 43.31a18.06 18.06 0 0 0 5.76 2.48c7.07 1.65 14.07-.39 18.74-6.38A21.6 21.6 0 0 0 103 25.8a1.73 1.73 0 0 0-1-1.71 37.38 37.38 0 0 0-3.6-1.62c-.48-.19-1-.33-1.19-.89.29-.32.53 0 .76 0a25.85 25.85 0 0 1 4.68 2.1 1.68 1.68 0 0 1 1 1.6A22.18 22.18 0 0 1 97.06 42a17.59 17.59 0 0 1-11 5A18.85 18.85 0 0 1 75 44.67a1.44 1.44 0 0 1-1-1.36ZM94.15 22.38l-2.61 2.56c-1.16-.52-1.94-1.66-3.07-2.31s-2.31-1.21-3.47-1.77c.1-.68.62-.7 1-.88 1-.5 1-.69.53-1.66-.14-.27-.44-.49-.32-.86 1.49-.17 6.54 2.92 7.94 4.92Z"/><path d="M96.27 32.33a24.34 24.34 0 0 0-4.09-6.51 2 2 0 0 1 1-1.14c.46.13.28.72.81.8.88-.41-.17-1.21.28-1.77.44 0 .23.68.55.69.52.17.52-.36.92-.49a21.6 21.6 0 0 1 4.08 6.94 14.32 14.32 0 0 1-3.55 1.48ZM85.28 16.93A20.11 20.11 0 0 1 84 20.36a2.58 2.58 0 0 1-1.52-.19 17.52 17.52 0 0 0-4.14-.52c-1.3 0-1.44-.17-1.58-1.41l-.15-1.31c0-.4-.4-.67-.59-1.17a20.56 20.56 0 0 1 9.26 1.17ZM66.17 22.16a1.56 1.56 0 0 1-.79.71 2.52 2.52 0 0 0-1.53 2.69c.07 1-.15 1.17-1.06 1.2a9.94 9.94 0 0 1-2.8.12 14.41 14.41 0 0 1-.1-3.53 2.85 2.85 0 0 1 1.7-2.76A22.19 22.19 0 0 1 64.51 19a19 19 0 0 1 1.66 3.16ZM96 54.48a23.69 23.69 0 0 1-5.45 5.2 33.21 33.21 0 0 1-2.32-3.12c2-1.25 3.09-3.47 5.51-4 1.1-.24 1.07-.33 1.68.69.16.27.33.54.48.82a1.86 1.86 0 0 1 .1.41ZM74.77 51.12A43.49 43.49 0 0 0 79.31 56 22.9 22.9 0 0 1 77 59.05a23.89 23.89 0 0 1-5.32-5.64c.52-.51.81.4 1.28-.17.04-.98.71-1.6 1.81-2.12ZM101.36 44.35a16.4 16.4 0 0 1-2.51-2.9 25.31 25.31 0 0 0 3.26-5.06c.64 0 .5.72.87.75.51.26.82-.13 1.28-.18.34.41.52 1.2 1.62.72a22.45 22.45 0 0 1-4.52 6.67ZM95.8 44.16A18.55 18.55 0 0 1 98.37 47a18.14 18.14 0 0 1-6.63 3.6 15.62 15.62 0 0 1-1-3.74 31.4 31.4 0 0 0 5.06-2.7ZM101.27 17.85a4.35 4.35 0 0 1-.49 1.55c-.31.91-.09 1.24.89 1.3.27 0 .56-.06.82.22 0 .49-.34.81-.61 1.22-1.13-.22-2-.83-3.07-1.12a21.71 21.71 0 0 0-2.18-.65 4.36 4.36 0 0 1-2.2-1.37 1 1 0 0 1-.09-1.43 2.71 2.71 0 0 1 2.08-1.25 12.39 12.39 0 0 1 4.85 1.53ZM80.71 51.56a16.15 16.15 0 0 1 .54-3.74h5.5a16.43 16.43 0 0 1 1 3.06c.15.4-.14.71-.55.75a26.76 26.76 0 0 1-6.49-.07ZM64.47 35.54c-.83.25-1.87-.52-2.48 1a22.74 22.74 0 0 1-1.48-5c-.09-.43.23-.67.64-.71l2.92-.28a5.43 5.43 0 0 1 .4 4.99ZM60.39 47.63c-.52.88-.87 1.78-1.89 2.17-.14-.09-.32-.15-.39-.27-1.3-2.35-2.42-4.75-2.23-7.54a2.87 2.87 0 0 1 1.66-2.6c.63.33 1 .83.46 1.41-1.28 1.46-.73 3-.32 4.51.22.81.61 1.45 1.61 1.5.44.02.77.37 1.1.82ZM106.66 50.15a2.86 2.86 0 0 1 2.83.8c-1.43 2.44-3 4.61-5.61 5.87a3.89 3.89 0 0 1-2.1.35 1.11 1.11 0 0 1-1.09-.82 1.09 1.09 0 0 1 1.5-.72 2 2 0 0 0 1.81-.36 12 12 0 0 0 2.21-2 1.29 1.29 0 0 0 .25-1.53 1.48 1.48 0 0 1 .2-1.59ZM84.76 6.29a3.32 3.32 0 0 1 2.14-.17 12.27 12.27 0 0 1 5.77 1.72 3.63 3.63 0 0 1 1.53 1.92c.15.46.14.93-.38 1.1a.82.82 0 0 1-1.09-.49c-.61-2-2.42-2.2-4-2.65a1.69 1.69 0 0 0-1.73.63c-.88.89-1.47.77-1.95-.38a2.09 2.09 0 0 1-.29-1.68ZM75.37 26.61a15.36 15.36 0 0 1-2.26-1.73c.09-.59 1-.36.91-1.07-.1-.46-.62-.09-.89-.34a1.34 1.34 0 0 1 .13-.32 1.65 1.65 0 0 1 .83-.67 13.68 13.68 0 0 1 5.91-.09 52.47 52.47 0 0 0-4.63 4.22ZM110.05 49.84a3.59 3.59 0 0 1-1.91-1.84 7.16 7.16 0 0 1-.8-3 2.51 2.51 0 0 1 1.32-2.29c.32 1.36-.45 2.93.94 3.93 1-.42 1.26-1.68 2.55-2a13.61 13.61 0 0 1-2.1 5.2ZM65.64 53c-.43.24-.65-.15-.92-.33a4.83 4.83 0 0 0-2-.83c-.82-.1-1.14.3-.81 1a4.55 4.55 0 0 1 .41 2.45A17.31 17.31 0 0 1 58.9 51c1.15-1.25 2.52-1 3.8-.68 2.12.45 2.81 1.17 2.94 2.68ZM78.08 6.77a12.56 12.56 0 0 1 5.46-.59A2.89 2.89 0 0 1 83 8.61a6.41 6.41 0 0 1-2.29 2.25 2.39 2.39 0 0 1-2.41 0c.16-.58.68-.59 1-.81A5.39 5.39 0 0 0 80.75 9c.58-.7.43-1.17-.47-1.3a4 4 0 0 1-2.2-.93ZM78.39 51.22c-1.9-1.41-2.72-3.43-3.57-5.48a29 29 0 0 0 5.31 1.75 5.88 5.88 0 0 1-.31 2.93c-.63.14-.8-.72-1.39-.41-.43.34.28.69-.04 1.21ZM92.37 35.05a1.22 1.22 0 0 1 0 1.16l-4.83 2.12a1.86 1.86 0 0 1-.19-1.33c.75-.68 1.86-.67 2.69-1.37-.8-.74-1.84-.89-2.62-1.49a2 2 0 0 1 0-1.39c1.81.55 3.33 1.64 4.95 2.3ZM82 32.82c.29 1.14.25 1.26-.64 1.7-.63.31-1.28.6-2 .94.46.7 1.19.68 1.77.94 1 .45 1.06.56.92 1.72-.27.24-.53.06-.77 0l-3.61-1.62c-.35-.16-.75-.32-.75-.83s.29-.69.67-.88l3.73-1.87c.21-.1.43-.24.68-.1ZM84.27 39.12a3 3 0 0 1-1.66-.12c.73-2.43 1.77-4.73 2.57-7.09a2.73 2.73 0 0 1 1.71-.1c-.68 2.55-1.76 4.87-2.62 7.31Z"/><path d="M67.16 56.9a1.19 1.19 0 0 1-1-.83c1.53-1.89.35-3.57-.57-5.22a3.18 3.18 0 0 1-.57-2.36c.65-.15.89.34 1.16.68a10.79 10.79 0 0 1 2.1 4.9 2.68 2.68 0 0 1-1.12 2.83ZM75.48 9.81c.46 1.79 2 1.84 3.4 2.08a10 10 0 0 0 1.9 0 1.87 1.87 0 0 1 1.84.78c-.07.28-.3.36-.54.41a9.27 9.27 0 0 1-6.59-.88 3.37 3.37 0 0 1-.85-.65c-.32-.34-.68-.74-.46-1.26s.65-.53 1.3-.48ZM104.78 45.8a2.37 2.37 0 0 1 .35-1.85 8.25 8.25 0 0 1 4.15-4.43 2 2 0 0 1 1.28-.2c.47.11.79.39.7.93s-.37.74-.84.63a2 2 0 0 0-2 .82 8.49 8.49 0 0 0-1.91 2.58 2.85 2.85 0 0 1-1.73 1.52ZM98.63 33.07a1.4 1.4 0 0 0 1.93-.08 12.91 12.91 0 0 1-2.81 5.69 3.79 3.79 0 0 1-.37-1.62 10.65 10.65 0 0 0-.62-2.9c-.17-.43-.25-.82.22-1.1.54.28-.15.8.36 1.08.74.13.55-.86 1.29-1.07ZM81.91 11.16c.52-.83 1-1 1.71-.63a12.24 12.24 0 0 0 4.14 1.41 3.1 3.1 0 0 1 2.14 1.17c-3.05.64-5.49-.47-7.99-1.95ZM63.93 49.65c-.59.11-1.14-.14-1.13-.72.06-2.23-1-4.24-1.09-6.44a.94.94 0 0 1 .13-.32c1.6.83 2.82 5.15 2.09 7.48ZM106.33 45.91c.58.52.69 1.12.12 1.45-1.81 1.06-3 2.8-4.69 4-.24.17-.45.49-1 .22 1.05-2.71 3.15-4.32 5.57-5.67ZM100.14 44.57c-.82.08-1.07.72-1.42 1.22a6 6 0 0 1-2-2.25 4 4 0 0 1 1.43-1.31 6.79 6.79 0 0 1 1.99 2.34ZM58.27 43.3a35.18 35.18 0 0 0 3 2.09c.5.39.53.75.35 1.58-2.06-.48-3.51-1.92-3.35-3.67ZM105.45 49.2a13.36 13.36 0 0 1-.13 3.73 1.39 1.39 0 0 1-1.1 1.06.47.47 0 0 1-.26-.56 9.51 9.51 0 0 0 .16-2.38c-.02-.8.37-1.34 1.33-1.85ZM85.53 10.19c.94-.52 1.8-1.07 2.73-1.48a1.85 1.85 0 0 1 2.07.51c-1.19.59-2.25 1.18-3.37 1.64a1.07 1.07 0 0 1-1.43-.67ZM89.34 49.48c-1.32-.33-1.44-.49-1.43-1.8a3 3 0 0 1 1.71-.47c.73 1.13.71 1.29-.28 2.27ZM93.09 18a20.92 20.92 0 0 0-3.39-2c1.81-.66 3.49.31 3.39 2ZM75 16.49a2.49 2.49 0 0 1 .74 3.05c-.61-.3-.88-1.38-.74-3.05ZM98.66 50.31c-.74 1.64-1 1.75-2.16 1.19a3.69 3.69 0 0 1 2.16-1.19ZM62.93 38.59a2.47 2.47 0 0 1 1.22-.2 3.51 3.51 0 0 1 0 2.18 9.65 9.65 0 0 1-1.22-1.98ZM80.29 56.53c.47 1-.25 1.31-.76 1.9-.37-.96.07-1.37.76-1.9ZM62.61 37.16c.28-.67.6-.94 1.15-.62a.41.41 0 0 1 .08.62c-.38.52-.77.35-1.23 0ZM60.3 29.48a.77.77 0 0 1-.16-1c.47-.16.67.11.86.39-.13.42-.32.63-.7.61ZM63.09 28.76a.62.62 0 0 1 .63-.68.77.77 0 0 1 .26.86c-.37.28-.65.16-.89-.18ZM78.55 58.74c.49.6.3.94-.3 1.24-.68-.61-.15-.87.3-1.24ZM61.6 29.77c.37-.49.69-.41 1.15-.15-.42.38-.75.43-1.15.15ZM62.49 27.72c-.33.53-.62.56-1.06.27.26-.4.57-.37 1.06-.27ZM96.24 52.73c.37-.18.62-.17.73.17a.33.33 0 0 1-.29.43c-.36.02-.45-.23-.44-.6ZM103.51 35.71s.12.1.12.15-.09.19-.2.14a.23.23 0 0 1-.07-.18s.1-.07.15-.11ZM105.47 36.66l-.1-.14.08-.05.11.13ZM99.37 32.11c.07 0 .16 0 .18.09s0 .15-.07.19a.11.11 0 0 1-.18-.08 1 1 0 0 1 .07-.2ZM89.71 51v.07h-.08v-.06ZM85.55 18.92a.18.18 0 0 1 .09 0c.08 0 .09.08 0 .13a.11.11 0 0 1-.09 0s.01-.11 0-.13Z"/></g></g></svg>